<svg xmlns="http://www.w3.org/2000/svg" width="709" height="292" viewBox="0 0 709 292" version="1.1"><path d="M 176.365 77.491 C 176.004 78.431, 175.995 111.893, 176.344 151.850 C 176.693 191.808, 176.983 234.520, 176.989 246.767 L 177 269.035 201.750 268.767 L 226.500 268.500 226.765 239.368 L 227.030 210.236 246.265 209.744 C 261.632 209.351, 267.109 208.821, 273.500 207.110 C 277.900 205.932, 284.698 203.453, 288.607 201.601 C 293.217 199.417, 298.193 195.896, 302.772 191.576 C 308.296 186.366, 310.697 183.134, 313.820 176.709 C 316.015 172.194, 318.415 166.025, 319.155 163 C 319.957 159.719, 320.484 152.053, 320.461 144 C 320.433 134.448, 319.913 128.599, 318.684 124 C 317.728 120.425, 315.452 114.350, 313.625 110.500 C 311.798 106.650, 308.249 100.991, 305.738 97.924 C 303.228 94.857, 298.322 90.500, 294.837 88.241 C 291.352 85.982, 286.064 83.181, 283.088 82.017 C 280.111 80.853, 274.711 79.206, 271.088 78.356 C 265.889 77.138, 255.275 76.703, 220.761 76.297 L 177.021 75.781 176.365 77.491 M 414.461 77.250 C 414.199 77.938, 414.100 121.250, 414.242 173.500 L 414.500 268.500 419 268.500 L 423.500 268.500 423.755 172.250 L 424.010 76 419.474 76 C 416.765 76, 414.745 76.504, 414.461 77.250 M 469 86.590 C 467.075 87.422, 463.810 89.748, 461.744 91.760 C 459.636 93.813, 457.112 97.757, 455.994 100.747 C 454.839 103.834, 454.009 108.478, 454.022 111.788 C 454.035 115.180, 454.800 119.165, 455.905 121.599 C 456.929 123.853, 459.282 126.778, 461.133 128.099 C 464.053 130.181, 465.628 130.500, 473 130.500 C 479.507 130.500, 482.433 130.031, 485.480 128.500 C 488.568 126.948, 489.607 125.755, 490.119 123.170 C 490.483 121.339, 491.093 116.502, 491.475 112.420 L 492.171 105 483.085 105 C 474.869 105, 474 105.179, 474 106.875 C 474 107.906, 473.719 110.156, 473.375 111.875 L 472.750 115 475.875 115 C 478.274 115, 479 115.440, 479 116.893 C 479 117.934, 478.288 119.059, 477.418 119.393 C 476.548 119.727, 474.748 120, 473.418 120 C 472.088 120, 470.100 119.100, 469 118 C 467.507 116.507, 467.001 114.670, 467.004 110.750 C 467.006 107.312, 467.680 104.397, 468.956 102.304 C 470.028 100.547, 472.048 98.360, 473.445 97.444 C 475.156 96.323, 476.886 96.004, 478.743 96.468 C 480.259 96.846, 482.262 97.842, 483.193 98.681 C 484.727 100.064, 485.312 99.900, 489.449 96.929 L 494.013 93.652 492.651 91.576 C 491.902 90.434, 489.537 88.495, 487.395 87.266 C 484.637 85.685, 481.894 85.040, 478 85.056 C 474.975 85.068, 470.925 85.759, 469 86.590 M 500.535 86.250 C 500.314 86.938, 499.179 95.825, 498.011 106 C 496.844 116.175, 495.635 125.985, 495.324 127.801 L 494.758 131.102 501.129 130.801 L 507.500 130.500 509.666 112.500 C 510.857 102.600, 512.110 92.362, 512.450 89.750 L 513.069 85 507.003 85 C 503.031 85, 500.799 85.432, 500.535 86.250 M 519.581 86.162 C 519.347 86.898, 518.208 95.600, 517.050 105.500 C 515.892 115.400, 514.692 125.188, 514.384 127.250 L 513.824 131 525.011 131 C 533.389 131, 537.081 130.581, 539.717 129.330 C 541.652 128.412, 544.082 126.274, 545.115 124.580 C 546.149 122.886, 547.270 120.040, 547.607 118.257 C 547.944 116.473, 547.940 113.898, 547.598 112.534 C 547.256 111.171, 546.032 109.176, 544.879 108.102 L 542.783 106.149 544.930 103.845 C 546.111 102.577, 547.316 100.588, 547.608 99.425 C 547.900 98.261, 547.995 95.597, 547.820 93.504 C 547.585 90.711, 546.750 89.140, 544.680 87.599 C 542.304 85.830, 540.140 85.447, 530.933 85.162 C 522.455 84.899, 519.910 85.123, 519.581 86.162 M 555.996 85.750 C 555.994 86.162, 554.870 95.275, 553.500 106 C 552.130 116.725, 551.006 126.737, 551.004 128.250 L 551 131 556.531 131 C 560.079 131, 562.205 130.552, 562.459 129.750 C 562.677 129.063, 563.145 125.912, 563.499 122.750 C 563.854 119.588, 564.522 117, 564.984 117 C 565.445 117, 567.059 120.150, 568.570 124 L 571.316 131 584.049 131 L 596.783 131 598.383 127 L 599.984 123 605.385 123 C 609.388 123, 610.943 123.410, 611.393 124.582 C 611.727 125.452, 612 127.252, 612 128.582 L 612 131 618.608 131 L 625.217 131 624.685 128.750 C 624.393 127.513, 622.239 117.162, 619.899 105.750 L 615.644 85 610.072 85.008 L 604.500 85.015 597.060 101.758 C 592.968 110.966, 588.445 121.105, 587.008 124.288 L 584.395 130.076 581.086 122.547 L 577.777 115.018 580.783 111.595 C 582.436 109.712, 584.338 106.505, 585.010 104.469 C 585.682 102.433, 585.995 99.002, 585.706 96.845 C 585.417 94.688, 584.430 91.778, 583.512 90.378 C 582.595 88.978, 580.319 87.196, 578.454 86.416 C 576.334 85.531, 571.493 85, 565.532 85 C 560.289 85, 555.998 85.338, 555.996 85.750 M 632.996 86.202 C 632.994 86.916, 631.870 96.275, 630.500 107 C 629.130 117.725, 628.006 127.513, 628.004 128.750 L 628 131 633.869 131 L 639.738 131 640.869 122.182 C 641.491 117.333, 642 112.308, 642 111.016 C 642 109.724, 642.326 108.992, 642.724 109.391 C 643.122 109.789, 645.283 114.701, 647.526 120.307 L 651.603 130.500 657.802 130.798 C 662.367 131.017, 664.001 130.753, 664.004 129.798 C 664.006 129.084, 665.130 119.725, 666.500 109 C 667.870 98.275, 668.994 88.487, 668.996 87.250 L 669 85 663.131 85 L 657.262 85 656.131 93.818 C 655.509 98.667, 655 103.932, 655 105.518 C 655 107.214, 654.642 108.009, 654.130 107.450 C 653.651 106.927, 651.432 101.775, 649.198 96 L 645.137 85.500 639.068 85.202 C 634.610 84.984, 632.999 85.249, 632.996 86.202 M 530 97.852 C 530 98.943, 529.727 100.548, 529.393 101.418 C 528.940 102.599, 529.416 103, 531.271 103 C 532.637 103, 534.297 102.347, 534.960 101.548 C 535.623 100.749, 536.012 99.287, 535.824 98.298 C 535.614 97.193, 534.427 96.378, 532.741 96.184 C 530.567 95.933, 530 96.278, 530 97.852 M 566.667 96.667 C 566.300 97.033, 566 99.283, 566 101.667 C 566 105.280, 566.321 106, 567.929 106 C 568.989 106, 570.564 105.293, 571.429 104.429 C 572.293 103.564, 573 101.587, 573 100.036 C 573 98.385, 572.343 96.962, 571.418 96.607 C 570.548 96.273, 569.273 96, 568.585 96 C 567.897 96, 567.033 96.300, 566.667 96.667 M 606.200 106.750 C 605.653 108.263, 604.885 110.287, 604.495 111.250 C 603.907 112.701, 604.336 113, 607 113 C 609.520 113, 610.083 112.658, 609.607 111.418 C 609.273 110.548, 609 108.523, 609 106.918 C 609 105.313, 608.594 104, 608.098 104 C 607.602 104, 606.748 105.237, 606.200 106.750 M 528 114.418 C 528 115.748, 527.727 117.548, 527.393 118.418 C 526.920 119.650, 527.469 120, 529.870 120 C 532.094 120, 533.433 119.269, 534.671 117.379 L 536.389 114.758 534.503 113.379 C 533.466 112.620, 531.579 112, 530.309 112 C 528.534 112, 528 112.559, 528 114.418 M 227 143.350 L 227 165 236.318 165 C 241.805 165, 247.773 164.366, 250.833 163.457 C 253.690 162.608, 257.620 160.517, 259.565 158.809 C 261.511 157.101, 263.741 154.467, 264.522 152.957 C 265.304 151.446, 266.223 148.456, 266.566 146.313 C 266.909 144.170, 266.678 140.516, 266.052 138.195 C 265.427 135.873, 263.588 132.461, 261.965 130.613 C 260.342 128.765, 256.712 126.262, 253.897 125.051 C 250.120 123.426, 245.926 122.699, 237.889 122.275 L 227 121.700 227 143.350 M 506.326 214.136 C 504.031 214.539, 500.847 215.545, 499.251 216.370 C 497.655 217.195, 494.714 219.681, 492.715 221.894 C 490.453 224.397, 488.452 228.078, 487.417 231.637 C 486.310 235.447, 485.930 239.291, 486.280 243.153 C 486.586 246.523, 487.700 250.396, 488.941 252.404 C 490.146 254.355, 492.937 256.759, 495.353 257.929 C 498.102 259.259, 501.575 259.992, 505.066 259.978 C 508.143 259.966, 512.239 259.166, 514.509 258.135 C 516.713 257.133, 520.032 254.589, 521.884 252.480 C 523.735 250.371, 525.861 247.183, 526.608 245.397 C 527.354 243.610, 528.259 239.648, 528.618 236.593 C 529.012 233.237, 528.793 229.349, 528.064 226.769 C 527.401 224.421, 526.094 221.566, 525.160 220.424 C 524.226 219.283, 522.214 217.531, 520.690 216.533 C 519.166 215.534, 516.249 214.421, 514.209 214.059 C 512.169 213.698, 508.622 213.733, 506.326 214.136 M 590.326 214.136 C 588.031 214.539, 584.881 215.534, 583.326 216.346 C 581.772 217.157, 579.312 219.099, 577.860 220.661 C 576.408 222.222, 574.264 225.407, 573.096 227.738 C 571.928 230.068, 570.696 234.614, 570.359 237.838 C 569.984 241.423, 570.218 245.129, 570.959 247.376 C 571.626 249.397, 573.350 252.451, 574.789 254.161 C 576.229 255.872, 578.876 257.886, 580.671 258.636 C 582.467 259.386, 586.337 260, 589.272 260 C 592.998 260, 596.099 259.240, 599.554 257.481 C 602.274 256.096, 605.751 253.306, 607.280 251.282 C 608.809 249.257, 610.777 245.135, 611.653 242.122 C 612.694 238.539, 613.064 234.638, 612.720 230.847 C 612.409 227.415, 611.299 223.602, 610.001 221.501 C 608.794 219.549, 606.388 217.211, 604.653 216.307 C 602.919 215.403, 599.925 214.379, 598 214.032 C 596.075 213.686, 592.622 213.733, 590.326 214.136 M 471.964 215.750 C 471.944 216.713, 471.084 223.969, 470.053 231.875 C 468.796 241.512, 467.664 246.764, 466.620 247.808 C 465.210 249.219, 464.864 249.187, 462.963 247.466 L 460.864 245.567 457.469 249.533 C 455.603 251.715, 454.058 253.797, 454.038 254.161 C 454.017 254.525, 455.441 256.035, 457.202 257.517 C 460.051 259.914, 461.042 260.165, 466.188 259.793 C 470.469 259.483, 472.611 258.774, 474.430 257.066 C 475.782 255.796, 477.609 253.236, 478.492 251.376 C 479.374 249.516, 480.975 241.422, 482.048 233.388 C 483.122 225.355, 484 217.706, 484 216.391 L 484 214 478 214 C 472.966 214, 471.994 214.282, 471.964 215.750 M 535.996 215.250 C 535.994 215.938, 534.870 225.275, 533.500 236 C 532.130 246.725, 531.006 256.512, 531.004 257.750 L 531 260 536.905 260 L 542.810 260 543.655 252.830 C 544.120 248.886, 544.950 245.513, 545.500 245.334 C 546.050 245.155, 547.841 248.382, 549.480 252.505 L 552.461 260 559.230 260 C 563.296 260, 566 259.580, 566 258.949 C 566 258.371, 563.548 252.475, 560.552 245.847 L 555.104 233.796 562.802 224.851 C 567.036 219.931, 570.650 215.477, 570.833 214.953 C 571.024 214.408, 568.161 214, 564.150 214 L 557.133 214 552.419 220 C 549.826 223.300, 547.524 226, 547.303 226 C 547.082 226, 547.206 223.300, 547.580 220 L 548.258 214 542.129 214 C 537.895 214, 535.999 214.386, 535.996 215.250 M 617.376 215.750 C 617.657 216.713, 619.299 226.725, 621.025 238 C 622.751 249.275, 624.514 258.865, 624.942 259.310 C 625.371 259.756, 627.873 259.981, 630.504 259.810 L 635.286 259.500 639.588 247.500 C 641.954 240.900, 643.944 235.725, 644.011 236 C 644.077 236.275, 644.665 241.675, 645.316 248 L 646.500 259.500 651.941 259.500 L 657.382 259.500 666.191 237.531 C 671.036 225.448, 675 215.210, 675 214.781 C 675 214.351, 672.174 214, 668.720 214 L 662.440 214 658.372 226.250 L 654.304 238.500 653.541 226.250 L 652.779 214 646.419 214 L 640.059 214 636.198 226.250 L 632.337 238.500 631.654 231 C 631.278 226.875, 630.694 221.363, 630.357 218.750 L 629.742 214 623.304 214 C 617.644 214, 616.927 214.212, 617.376 215.750 M 678.971 214.250 C 678.955 214.387, 677.693 224.525, 676.167 236.779 C 674.640 249.032, 673.603 259.270, 673.862 259.529 C 674.121 259.788, 676.958 260, 680.167 260 C 684.362 260, 686 259.625, 686 258.666 C 686 257.933, 687.119 248.370, 688.487 237.416 C 689.854 226.462, 690.979 216.713, 690.987 215.750 C 690.998 214.276, 690.053 214, 685 214 C 681.700 214, 678.987 214.113, 678.971 214.250 M 503.636 227.462 C 502.175 228.816, 500.534 231.095, 499.990 232.527 C 499.445 233.959, 499 237.333, 499 240.026 C 499 243.775, 499.513 245.400, 501.189 246.961 C 502.392 248.082, 504.357 249, 505.554 249 C 506.751 249, 508.970 248.024, 510.486 246.832 C 512.002 245.640, 513.863 243.179, 514.621 241.364 C 515.380 239.549, 516 236.110, 516 233.721 C 516 230.732, 515.364 228.695, 513.961 227.189 C 512.796 225.938, 510.715 225, 509.107 225 C 507.502 225, 505.150 226.058, 503.636 227.462 M 588.514 227.168 C 586.998 228.360, 585.137 230.821, 584.379 232.636 C 583.620 234.451, 583 237.771, 583 240.013 C 583 243.009, 583.651 244.742, 585.455 246.545 C 586.805 247.895, 588.627 249, 589.504 249 C 590.382 249, 592.366 248.345, 593.915 247.544 C 595.463 246.743, 597.466 244.538, 598.365 242.643 C 599.264 240.748, 600 236.903, 600 234.099 C 600 230.333, 599.477 228.477, 598 227 C 596.900 225.900, 594.936 225, 593.635 225 C 592.334 225, 590.030 225.976, 588.514 227.168" stroke="none" fill="#000000" fill-rule="evenodd"/><path d="M 362.840 14.491 L 341.180 28.822 340.736 86.661 L 340.293 144.500 338.115 156.284 C 336.917 162.765, 334.562 171.869, 332.881 176.514 C 331.200 181.160, 328.141 187.557, 326.083 190.730 C 324.026 193.904, 320.352 198.539, 317.921 201.030 C 315.489 203.522, 311.353 207.038, 308.730 208.843 C 306.106 210.647, 301.120 213.453, 297.651 215.076 C 294.181 216.700, 286.878 219.186, 281.421 220.601 C 273.562 222.638, 267.966 223.311, 254.500 223.837 L 237.500 224.500 237.230 246.250 L 236.961 268 245.807 268 C 250.672 268, 259.568 267.527, 265.576 266.950 C 271.584 266.372, 281.643 264.987, 287.930 263.872 C 294.216 262.757, 304.069 260.302, 309.824 258.417 C 315.580 256.531, 323.487 253.366, 327.395 251.384 C 331.303 249.401, 337.200 245.854, 340.500 243.501 C 343.800 241.148, 349.471 236.135, 353.103 232.362 C 356.734 228.588, 361.415 222.827, 363.505 219.559 C 365.595 216.292, 368.969 209.992, 371.003 205.559 C 373.036 201.127, 375.641 194.350, 376.791 190.500 C 377.941 186.650, 379.801 178.968, 380.924 173.428 C 382.047 167.888, 383.648 156.228, 384.483 147.517 C 385.663 135.193, 386 117.071, 386 65.839 C 386 29.628, 385.663 0.036, 385.250 0.080 C 384.837 0.124, 374.753 6.609, 362.840 14.491 M 87.500 95.112 C 82.550 95.492, 75.534 96.500, 71.909 97.351 C 68.284 98.201, 62.209 100.065, 58.409 101.491 C 54.609 102.918, 48.515 105.855, 44.868 108.017 C 41.220 110.180, 35.532 114.208, 32.228 116.969 C 28.924 119.730, 23.743 125.254, 20.716 129.245 C 17.688 133.235, 13.852 138.975, 12.190 142 C 10.528 145.025, 7.771 151.499, 6.063 156.387 C 4.356 161.276, 2.247 169.601, 1.377 174.887 C 0.214 181.952, -0.059 188.211, 0.346 198.500 C 0.696 207.398, 1.623 215.416, 2.887 220.500 C 3.982 224.900, 6.223 231.747, 7.867 235.715 C 9.512 239.683, 12.965 246.188, 15.541 250.170 C 18.117 254.152, 23.006 260.191, 26.404 263.589 C 29.802 266.988, 36.034 272.021, 40.251 274.774 C 44.469 277.527, 51.326 281.198, 55.491 282.932 C 59.655 284.666, 66.695 286.988, 71.135 288.093 C 75.575 289.198, 83.760 290.498, 89.324 290.981 C 95.233 291.494, 104.055 291.484, 110.532 290.956 C 116.632 290.459, 124.745 289.394, 128.561 288.590 C 132.378 287.787, 139.325 285.924, 144 284.451 C 148.675 282.978, 155.422 280.453, 158.994 278.839 C 162.566 277.225, 168.078 274.238, 171.243 272.202 L 176.998 268.500 176.749 224 L 176.500 179.500 136.250 179.239 L 96 178.977 96 199.989 L 96 221 112.039 221 L 128.078 221 127.789 229.711 L 127.500 238.422 120.659 240.766 C 116.860 242.068, 110.111 243.372, 105.478 243.699 C 100.441 244.054, 94.636 243.800, 90.819 243.056 C 87.344 242.379, 82.296 240.725, 79.602 239.380 C 76.909 238.035, 73.079 235.646, 71.091 234.072 C 69.103 232.498, 65.759 228.716, 63.660 225.668 C 61.561 222.620, 58.671 216.836, 57.237 212.813 C 55.013 206.571, 54.627 203.816, 54.607 194 C 54.588 184.932, 55.048 180.994, 56.781 175.380 C 57.990 171.464, 60.755 165.599, 62.927 162.348 C 65.098 159.096, 68.714 154.958, 70.961 153.152 C 73.209 151.345, 77.516 148.738, 80.532 147.357 C 83.549 145.976, 88.683 144.469, 91.942 144.008 C 95.212 143.546, 100.998 143.564, 104.851 144.048 C 108.692 144.530, 114.384 145.820, 117.500 146.916 C 120.616 148.011, 125.086 150.033, 127.435 151.409 C 129.783 152.785, 133.613 155.506, 135.947 157.455 C 138.280 159.405, 140.379 161, 140.612 161 C 140.844 161, 148.789 154.419, 158.267 146.376 C 167.745 138.333, 175.635 130.977, 175.799 130.030 C 175.984 128.968, 173.680 126.067, 169.799 122.473 C 166.335 119.264, 160.575 114.753, 157 112.449 C 153.425 110.144, 148.250 107.134, 145.500 105.759 C 142.750 104.384, 137.125 102.107, 133 100.699 C 128.875 99.292, 121.900 97.461, 117.500 96.630 C 113.100 95.800, 106.575 94.963, 103 94.771 C 99.425 94.578, 92.450 94.732, 87.500 95.112 M 687.328 150.938 C 685.033 151.980, 682.405 153.978, 681.488 155.378 C 680.571 156.778, 679.577 159.732, 679.281 161.943 C 678.974 164.232, 679.300 167.311, 680.040 169.096 C 680.910 171.196, 683.591 173.674, 688.169 176.608 C 691.926 179.016, 695 181.656, 695 182.474 C 695 183.293, 693.923 184.232, 692.608 184.562 C 691.250 184.903, 688.910 184.488, 687.198 183.602 C 685.539 182.744, 683.996 181.489, 683.771 180.813 C 683.509 180.027, 681.860 180.831, 679.199 183.042 C 676.909 184.944, 675.028 187.022, 675.018 187.661 C 675.008 188.300, 676.364 189.970, 678.031 191.373 C 679.698 192.775, 682.736 194.388, 684.781 194.956 C 686.826 195.524, 689.670 195.991, 691.101 195.994 C 692.531 195.997, 695.231 195.489, 697.101 194.864 C 698.970 194.239, 701.727 192.590, 703.227 191.199 C 704.727 189.808, 706.459 187.140, 707.076 185.270 C 707.693 183.400, 707.923 180.403, 707.587 178.610 C 707.250 176.817, 705.743 174.206, 704.238 172.808 C 702.732 171.409, 699.362 169.038, 696.750 167.538 C 693.658 165.762, 692 164.134, 692 162.874 C 692 161.809, 692.751 160.649, 693.668 160.297 C 694.586 159.945, 696.644 160.407, 698.242 161.324 C 700.206 162.451, 701.690 162.699, 702.824 162.088 C 703.746 161.590, 705.579 160.031, 706.897 158.621 C 708.992 156.381, 709.118 155.846, 707.897 154.371 C 707.129 153.443, 704.700 151.864, 702.500 150.863 C 700.300 149.863, 696.925 149.044, 695 149.044 C 693.075 149.044, 689.623 149.896, 687.328 150.938 M 458.996 151.250 C 458.994 151.938, 457.870 161.275, 456.500 172 C 455.130 182.725, 454.006 192.287, 454.004 193.250 C 454.001 194.719, 454.946 195, 459.899 195 L 465.797 195 466.500 188 L 467.203 181 471.286 181 C 473.531 181, 477.228 180.100, 479.500 179 C 482.256 177.666, 484.427 175.586, 486.018 172.755 C 487.633 169.881, 488.419 166.862, 488.452 163.410 C 488.478 160.606, 487.841 157.078, 487.035 155.570 C 486.230 154.063, 484.340 152.193, 482.835 151.415 C 480.984 150.457, 476.689 150, 469.550 150 C 461.779 150, 458.999 150.329, 458.996 151.250 M 494 151.334 C 494 152.067, 492.881 161.630, 491.513 172.584 C 490.146 183.538, 489.021 193.063, 489.013 193.750 C 489.003 194.693, 492.559 195, 503.500 195 C 516.639 195, 518.001 194.836, 518.011 193.250 C 518.017 192.287, 518.301 189.813, 518.642 187.750 L 519.262 184 510.631 184 C 503.847 184, 502 183.697, 502 182.582 C 502 181.802, 502.273 180.452, 502.607 179.582 C 503.064 178.392, 504.646 178, 508.990 178 C 514.135 178, 514.833 177.754, 515.370 175.750 C 515.701 174.512, 515.979 172.037, 515.986 170.250 L 516 167 509.883 167 L 503.767 167 504.370 164.750 C 504.701 163.512, 504.979 162.162, 504.986 161.750 C 504.994 161.338, 508.600 161, 513 161 C 519.948 161, 521.001 160.770, 521.011 159.250 C 521.017 158.287, 521.301 155.813, 521.642 153.750 L 522.262 150 508.131 150 C 497.020 150, 494 150.285, 494 151.334 M 527.593 153.705 C 527.264 155.792, 526.096 165.004, 524.997 174.175 C 523.899 183.347, 523 191.784, 523 192.925 C 523 194.788, 523.597 195, 528.842 195 L 534.684 195 536.092 183.750 L 537.500 172.500 541.905 183.750 L 546.311 195 552.655 195 C 557.277 195, 559 194.638, 559 193.666 C 559 192.933, 560.119 183.370, 561.487 172.416 C 562.854 161.462, 563.979 151.938, 563.987 151.250 C 563.996 150.390, 562.163 150, 558.111 150 L 552.223 150 551.666 153.250 C 551.360 155.037, 550.804 159.650, 550.432 163.500 C 550.059 167.350, 549.529 170.884, 549.254 171.354 C 548.979 171.824, 546.846 167.324, 544.514 161.354 L 540.275 150.500 534.233 150.205 L 528.191 149.910 527.593 153.705 M 568.124 168.750 C 566.902 179.063, 565.641 189.188, 565.323 191.250 L 564.744 195 579.241 195 L 593.738 195 594.358 191.250 C 594.699 189.188, 594.983 186.713, 594.989 185.750 C 594.999 184.218, 593.927 184, 586.383 184 L 577.767 184 578.370 181.750 C 578.701 180.512, 578.979 179.162, 578.986 178.750 C 578.994 178.338, 581.652 178, 584.893 178 C 589.344 178, 590.935 177.613, 591.393 176.418 C 591.727 175.548, 592 173.073, 592 170.918 L 592 167 585.893 167 C 580.735 167, 579.880 166.754, 580.393 165.418 C 580.727 164.548, 581 163.198, 581 162.418 C 581 161.314, 582.743 161, 588.869 161 L 596.738 161 597.358 157.250 C 597.699 155.188, 597.983 152.713, 597.989 151.750 C 597.999 150.167, 596.679 150, 584.173 150 L 570.346 150 568.124 168.750 M 603.987 150.750 C 603.979 151.162, 602.854 160.462, 601.487 171.416 C 600.119 182.370, 599 192.158, 599 193.166 C 599 194.736, 599.844 195, 604.871 195 L 610.742 195 611.431 188 C 611.811 184.150, 612.504 181, 612.972 181 C 613.440 181, 615.059 184.150, 616.570 188 L 619.316 195 626.086 195 L 632.856 195 629.346 187.194 L 625.835 179.388 628.892 176.115 C 630.574 174.315, 632.408 171.191, 632.969 169.171 C 633.530 167.152, 633.991 164.248, 633.994 162.718 C 633.997 161.188, 633.360 158.405, 632.579 156.534 C 631.789 154.643, 629.813 152.437, 628.128 151.566 C 625.940 150.435, 622.170 150, 614.550 150 C 608.747 150, 603.994 150.338, 603.987 150.750 M 640.968 151.250 C 640.951 151.938, 640.290 157.225, 639.500 163 C 638.710 168.775, 638.049 175.853, 638.032 178.730 C 638.014 181.606, 638.716 185.748, 639.590 187.934 C 640.810 190.984, 642.228 192.416, 645.677 194.086 C 649.259 195.820, 651.277 196.148, 655.604 195.701 C 658.592 195.393, 662.571 194.192, 664.447 193.033 C 666.392 191.830, 668.775 189.030, 669.992 186.516 C 671.407 183.594, 672.773 177.119, 674.044 167.304 C 675.099 159.162, 675.971 151.938, 675.981 151.250 C 675.994 150.387, 674.143 150, 670 150 C 666.700 150, 664 150.176, 664 150.391 C 664 150.606, 663.123 157.342, 662.052 165.360 C 660.981 173.377, 659.615 180.851, 659.017 181.968 C 658.297 183.314, 656.922 184, 654.943 184 C 652.745 184, 651.663 183.354, 650.842 181.552 C 649.996 179.696, 650.122 175.981, 651.363 166.190 C 652.263 159.087, 653 152.538, 653 151.638 C 653 150.303, 651.891 150, 647 150 C 642.884 150, 640.990 150.392, 640.968 151.250 M 469.644 163.196 C 469.305 164.463, 469.021 166.768, 469.014 168.317 C 469.002 170.773, 469.289 171.049, 471.250 170.466 C 472.488 170.099, 474.082 169.056, 474.792 168.150 C 475.503 167.243, 475.953 165.376, 475.792 164.001 C 475.575 162.141, 474.828 161.422, 472.881 161.196 C 470.858 160.962, 470.121 161.417, 469.644 163.196 M 614.628 162.528 C 614.282 163.427, 614 165.702, 614 167.582 C 614 169.689, 614.490 171, 615.277 171 C 615.980 171, 617.580 170.282, 618.834 169.404 C 620.541 168.208, 621.036 167.018, 620.806 164.654 C 620.557 162.091, 620.009 161.443, 617.878 161.196 C 616.169 160.998, 615.037 161.462, 614.628 162.528" stroke="none" fill="#e3242c" fill-rule="evenodd"/><path d="M 176 130 C 176 130.733, 176.300 131.033, 176.667 130.667 C 177.033 130.300, 177.033 129.700, 176.667 129.333 C 176.300 128.967, 176 129.267, 176 130 M 176 179.500 C 176 179.775, 176.225 180, 176.500 180 C 176.775 180, 177 179.775, 177 179.500 C 177 179.225, 176.775 179, 176.500 179 C 176.225 179, 176 179.225, 176 179.500" stroke="none" fill="#040404" fill-rule="evenodd"/></svg>