<?xml version="1.0" encoding="UTF-8"?>
<!DOCTYPE svg PUBLIC "-//W3C//DTD SVG 1.1//EN" "http://www.w3.org/Graphics/SVG/1.1/DTD/svg11.dtd">
<!-- Creator: CorelDRAW -->
<svg xmlns="http://www.w3.org/2000/svg" xml:space="preserve" width="113.188mm" height="92.8684mm" version="1.1" style="shape-rendering:geometricPrecision; text-rendering:geometricPrecision; image-rendering:optimizeQuality; fill-rule:evenodd; clip-rule:evenodd"
viewBox="0 0 1860.29 1526.33"
 xmlns:xlink="http://www.w3.org/1999/xlink"
 xmlns:xodm="http://www.corel.com/coreldraw/odm/2003">
 <defs>
  <style type="text/css">
   <![CDATA[
    .fil4 {fill:#E62129}
    .fil5 {fill:white}
    .fil1 {fill:black;fill-rule:nonzero}
    .fil3 {fill:black;fill-rule:nonzero}
    .fil2 {fill:#E62129;fill-rule:nonzero}
    .fil0 {fill:white;fill-rule:nonzero}
   ]]>
  </style>
 </defs>
 <g id="Layer_x0020_1">
  <metadata id="CorelCorpID_0Corel-Layer"/>
  <g id="_2491460184752">
   <g>
    <path class="fil0" d="M532.22 1286.66c15.14,0 29.9,-0.62 44.33,-1.8 15.43,-1.27 29.94,-3.02 43.61,-5.21 13.76,-2.21 28,-5.01 42.74,-8.44 13.62,-3.17 27.2,-6.87 40.71,-11.14l0.32 0c12.58,-3.88 25.09,-8.29 37.47,-13.14 13.19,-5.16 25.13,-10.34 35.89,-15.5l-0.06 -0.12c10.95,-5.34 21.11,-10.88 30.5,-16.56 3.6,-2.18 7.04,-4.33 10.32,-6.45l0 -317.2 -261.58 0 0 93.91 139.15 0 0 142.34 -23.92 11.02c-7.54,3.47 -15.42,6.81 -23.68,10.01 -7.58,2.94 -15.29,5.61 -23.15,8l-0.48 0.16c-8.19,2.37 -15.78,4.32 -22.7,5.8 -7.1,1.52 -14.75,2.83 -23.02,3.9 -7.89,1.04 -15.54,1.77 -22.96,2.21 -8.72,0.51 -16.52,0.76 -23.49,0.76l-0.16 -0.16c-18.56,-0.11 -36.1,-1.9 -52.6,-5.3 -17.21,-3.55 -33.44,-8.84 -48.67,-15.81l-0.32 -0.16c-15.09,-7.07 -28.9,-15.37 -41.42,-24.9 -12.79,-9.74 -24.37,-20.77 -34.72,-33.13 -9.91,-11.83 -18.78,-24.74 -26.58,-38.72 -7.7,-13.79 -14.13,-28.24 -19.27,-43.34l-0.16 -0.32c-4.82,-14.57 -8.56,-30.16 -11.18,-46.8 -2.6,-16.51 -3.92,-32.81 -3.92,-48.92l0.16 -0.16c0.11,-19.98 1.61,-38.66 4.51,-55.96 3.02,-18.05 7.54,-35.06 13.56,-50.97 5.97,-15.89 13.08,-30.58 21.34,-44.11 8.41,-13.77 18.03,-26.31 28.87,-37.64 10.76,-11.36 22.24,-21.28 34.39,-29.71l0.16 0c12.5,-8.68 25.68,-15.91 39.51,-21.65 13.98,-5.8 28.13,-10.15 42.47,-13.01 14.56,-2.9 29.44,-4.37 44.66,-4.37l0.16 0.16c16.75,0.11 32.12,1.26 46.12,3.39 15.01,2.28 29.41,5.71 43.15,10.21l0.32 0.16c13.54,4.55 25.81,9.45 36.84,14.71 11.54,5.51 22.63,11.79 33.28,18.85l-0.05 0.07c8.4,5.54 15.92,10.88 22.63,16.03l94.87 -80.19 -1.61 -1.5 0.07 -0.08c-10.14,-9.38 -21.21,-18.37 -33.3,-26.96 -11.64,-8.33 -23.93,-16.12 -36.82,-23.38 -12.95,-7.29 -26,-13.75 -39.12,-19.37l-0.16 -0.16c-12.61,-5.45 -26.31,-10.52 -41.08,-15.19 -14.48,-4.58 -28.35,-8.23 -41.62,-10.95l-0.16 0c-14.02,-2.96 -28.03,-5.19 -41.97,-6.67 -13.28,-1.42 -27.01,-2.13 -41.17,-2.13l0 -0.16c-23.95,0.09 -47.35,1.8 -70.15,5.14 -22.25,3.26 -43.07,7.99 -62.42,14.18 -19.9,6.37 -38.45,13.94 -55.63,22.72 -16.9,8.64 -32.9,18.7 -48,30.19 -15.06,11.47 -28.91,23.95 -41.56,37.45 -12.49,13.33 -23.88,27.77 -34.18,43.33l0.04 0.02c-10.44,15.91 -19.59,32.53 -27.43,49.83 -7.91,17.47 -14.56,35.67 -19.88,54.58 -10.79,38.48 -16.19,79.58 -16.19,123.29l-0.16 0c0.09,24.25 1.84,47.88 5.23,70.85 3.32,22.47 8.15,43.49 14.47,63.05 6.33,19.6 14.04,38.14 23.1,55.64 8.82,17.03 18.95,33 30.36,47.91l0.05 -0.04c11.74,15.11 24.36,28.86 37.86,41.25 13.58,12.46 28.22,23.75 43.93,33.85 15.83,10.18 32.52,19.17 50.1,26.93 17.59,7.76 35.95,14.25 55.09,19.42l0.16 0.16c19.48,5.33 39.64,9.36 60.47,12.08 19.98,2.61 41.22,3.92 63.72,3.92zm50.75 80.05c-17.01,1.4 -33.92,2.12 -50.75,2.12 -24.65,0 -49.43,-1.64 -74.31,-4.88 -24.2,-3.16 -47.94,-7.93 -71.19,-14.28l-0.03 0.11c-23.34,-6.31 -45.66,-14.18 -66.97,-23.59 -21.32,-9.41 -41.76,-20.43 -61.34,-33.03 -19.7,-12.67 -38.08,-26.84 -55.17,-42.52 -17.17,-15.75 -32.89,-32.82 -47.17,-51.2l-0.16 -0.32c-14.34,-18.69 -27.11,-38.82 -38.28,-60.39 -10.99,-21.21 -20.41,-43.92 -28.24,-68.16 -7.87,-24.36 -13.78,-49.77 -17.68,-76.21 -3.8,-25.74 -5.77,-53.32 -5.87,-82.73l-0.16 0c0,-50.84 6.47,-99.32 19.41,-145.44 6.5,-23.06 14.54,-45.11 24.05,-66.13 9.72,-21.46 20.92,-41.83 33.53,-61.06l0.16 -0.16c12.82,-19.39 27.14,-37.53 42.97,-54.43 15.73,-16.78 32.89,-32.25 51.51,-46.43 18.58,-14.15 38.76,-26.78 60.52,-37.9 21.48,-10.98 44.09,-20.26 67.83,-27.86 24.28,-7.77 49.48,-13.57 75.58,-17.39 25.59,-3.75 52.95,-5.67 82.02,-5.78l0 -0.16c15.92,0 32.56,0.92 49.84,2.77 16.55,1.77 33.24,4.42 50,7.96l-0.01 0.03c17.49,3.59 34.1,7.88 49.81,12.85 15.41,4.88 31.61,10.98 48.59,18.32l0.03 -0.08c16.41,7.03 32.14,14.78 47.15,23.22 14.94,8.41 29.68,17.81 44.2,28.19 14.29,10.15 28.08,21.43 41.41,33.78l0.16 0c12.95,12 25.12,24.81 36.6,38.39l26.47 31.33 -193.15 163.27 175.89 0 0 440.98 -16.53 12.4c-11,8.25 -22.2,15.86 -33.59,22.75 -11.62,7.03 -23.93,13.74 -36.92,20.09l-0.32 0c-13.99,6.72 -27.89,12.83 -41.61,18.19 -13.42,5.25 -27.73,10.26 -42.96,14.97l0.03 0.09c-15.01,4.73 -30.63,8.97 -46.81,12.74 -15.07,3.51 -31.27,6.64 -48.51,9.4 -17.33,2.78 -34.02,4.86 -50.03,6.18zm-67.59 -557.79l169.38 0 -8.27 -8.02c-5.31,-5.15 -11.32,-10.42 -18.08,-15.8 -6.99,-5.56 -13.95,-10.66 -20.8,-15.17l-0.16 0c-6.96,-4.61 -14.73,-8.97 -23.33,-13.07 -9.01,-4.3 -18.07,-7.98 -27.19,-11.06l-0.01 0.05c-9.19,-3.01 -19.19,-5.36 -29.99,-7 -11.39,-1.73 -22.76,-2.66 -34.08,-2.74l0 0.16c-9.86,0 -19.39,0.93 -28.6,2.76 -9.44,1.88 -18.46,4.62 -27.06,8.19 -8.69,3.61 -16.81,8.03 -24.31,13.23l0.05 0.08c-7.91,5.49 -15.21,11.77 -21.88,18.8l-0.16 0.16c-6.7,6.99 -12.74,14.88 -18.11,23.68 -5.57,9.11 -10.42,19.21 -14.6,30.3 -4.11,10.87 -7.25,22.74 -9.39,35.56 -2.27,13.58 -3.46,27.81 -3.54,42.63l0.16 0c0,13.18 0.89,25.3 2.63,36.4 1.73,10.97 4.5,22.18 8.29,33.64l-0.04 0.01c3.63,10.6 7.99,20.45 13.06,29.53 5.01,8.98 10.99,17.61 17.92,25.88 6.49,7.74 13.68,14.61 21.56,20.61 8.05,6.13 16.72,11.38 26.01,15.76 9.59,4.38 19.93,7.73 31.01,10.02 11.46,2.36 23.59,3.61 36.39,3.7l0 -0.16c7.38,0 13.66,-0.14 18.67,-0.44 6.31,-0.37 12.07,-0.89 17.18,-1.57 4.94,-0.64 10.49,-1.64 16.6,-2.94 6.28,-1.34 11.91,-2.74 16.92,-4.2 3.73,-1.13 7.68,-2.47 11.84,-4l0 -6.69 -139.15 0 0 -258.27 41.09 0z"/>
    <path class="fil0" d="M900.16 1188.05l129.71 0 -0 -249.01 133.15 0c22.27,0 42.85,-1.28 61.75,-3.85 19.03,-2.59 36.99,-6.46 53.88,-11.64l0.32 -0.16c16.42,-4.95 31.54,-11.12 45.38,-18.46 13.69,-7.26 26.24,-15.74 37.66,-25.39l0.01 0.01c10.94,-9.35 20.69,-19.94 29.24,-31.76 8.77,-12.12 16.13,-25.23 22.07,-39.3l-0.14 -0.06c6.29,-14.98 10.94,-30.85 13.98,-47.61 3.23,-17.84 4.89,-37.06 4.98,-57.66l-0.16 0c0,-19.12 -1.28,-37.23 -3.87,-54.38 -2.61,-17.28 -6.43,-33.41 -11.49,-48.41l0 -0.16c-4.9,-14.77 -11.14,-28.62 -18.72,-41.52 -7.36,-12.52 -16.17,-24.28 -26.43,-35.27 -9.77,-10.46 -21.04,-19.86 -33.8,-28.2 -13.35,-8.73 -27.77,-16.06 -43.24,-22.01 -15.85,-6.1 -33.57,-10.76 -53.13,-13.97 -20.21,-3.32 -41.85,-5.03 -64.91,-5.12l0 0.16 -276.25 0 0 733.77zm170.79 82.18l-252.97 0 -0 -898.13 358.43 0 0 0.16c28.04,0.11 54.07,2.13 78.07,6.08 24.65,4.05 47.71,10.21 69.18,18.47 21.85,8.41 41.51,18.3 58.97,29.72 18.05,11.8 34.35,25.47 48.89,41.04 14.04,15.04 26.39,31.62 37.02,49.71 10.38,17.68 18.96,36.72 25.73,57.1l0.05 -0.02c6.81,20.21 11.8,40.93 15.02,62.22 3.24,21.42 4.84,43.59 4.84,66.58l-0.16 0.16c-0.11,25.46 -2.18,49.45 -6.26,71.95 -4.28,23.62 -10.54,45.28 -18.8,64.94l-0.16 0c-8.61,20.4 -18.98,38.99 -31.08,55.72 -12.25,16.93 -26.44,32.29 -42.58,46.04l-0.16 0.16c-15.89,13.42 -33.35,25.23 -52.42,35.34 -18.62,9.87 -38.66,18.08 -60.15,24.56l-0.02 -0.06c-21.09,6.44 -43.32,11.25 -66.7,14.43 -23.63,3.22 -47.84,4.81 -72.66,4.81l-50.97 0 0 249.01 -41.09 0zm-41.09 -479.02l0 -227.32 98.32 0 0.16 0.16c16.26,0.12 30.84,1.47 43.78,4.04 14.36,2.85 27.53,7.19 39.53,12.99 11.89,5.75 22.48,12.65 31.77,20.66 9.61,8.29 17.69,17.75 24.22,28.32l0.07 -0.04c6.41,10.31 11.21,21.26 14.46,32.91 3.23,11.56 4.81,23.22 4.81,35.08l-0.16 0.32c-0.13,14.21 -1.96,27.33 -5.5,39.42 -3.8,12.94 -9.51,24.76 -17.16,35.5l-0.08 -0.05c-7.49,10.55 -16.24,19.55 -26.15,27.02 -9.79,7.39 -20.91,13.55 -33.26,18.51 -11.53,4.64 -23.89,8.06 -37.05,10.3 -12.88,2.19 -26.23,3.27 -40.02,3.27l-97.74 0 0 -41.09zm82.18 -145.15l0 104.06 15.57 0c9.86,0 18.72,-0.66 26.54,-1.99 7.35,-1.25 14.04,-3.08 20.04,-5.49 5.41,-2.17 10.2,-4.81 14.32,-7.92 3.73,-2.82 6.72,-5.77 8.89,-8.83l0 -0.16c2.3,-3.23 4.06,-6.92 5.28,-11.1 1.45,-4.95 2.21,-10.48 2.29,-16.63l-0.16 0c0,-4.99 -0.53,-9.4 -1.6,-13.25 -1.05,-3.76 -2.76,-7.55 -5.15,-11.4l0 -0.16c-2.08,-3.38 -4.84,-6.55 -8.24,-9.49 -3.71,-3.2 -8.3,-6.13 -13.79,-8.78 -5.48,-2.65 -12.02,-4.74 -19.63,-6.25 -8.82,-1.75 -18.22,-2.67 -28.21,-2.75l0 0.16 -16.14 0z"/>
    <path class="fil0" d="M1161.29 1084.76l0 101.1c220.98,-5.79 353.34,-59.11 431.44,-149 82.98,-95.51 108.9,-236.42 116.52,-407.37l-0.08 0 0.04 -0.47 -0.03 -0.28 0 -459.78c-18.21,11.68 -37.15,23.17 -55.86,34.52 -17.41,10.56 -34.59,20.98 -51.18,31.69l0 394.32 -0.16 0.96c-3.08,119.99 -21.92,231.2 -85.03,314.83 -64.38,85.32 -171.43,139 -348.59,139.56 -2.61,0.01 -4.91,-0.02 -7.08,-0.07zm-82.18 142.72l0 -226.32 41.09 0c4,0 9.04,0.35 14.12,0.71 4.03,0.28 8.11,0.57 9.36,0.56 5.6,-0.02 9.92,0.13 14.16,0.28l0.16 0c3.94,0.14 7.79,0.28 10.37,0.27 147.28,-0.47 233.7,-41.67 283.1,-107.14 50.53,-66.95 65.88,-162.06 68.63,-266.35l-0.13 0 0 -437.9 17.98 -12.25c20.84,-14.2 46.7,-29.88 73.01,-45.85 40.94,-24.83 83.12,-50.42 112.67,-75.66l67.73 -57.83 0 628.73 -0.12 0 0 0.74 0.11 0 -0.16 1.78c-8.27,188.72 -38.29,346.18 -136.5,459.21 -98.65,113.55 -261.96,178.11 -534.48,178.11l-41.09 0 0 -41.09z"/>
   </g>
   <path class="fil0" d="M118.41 1436.91l-42.76 0 -2.82 23.1 15.98 0 -1.67 11.15c-2.69,1.62 -5.22,2.74 -7.57,3.37 -2.37,0.65 -4.72,0.94 -7.13,0.92 -3.63,0 -6.79,-0.81 -9.48,-2.43 -2.69,-1.64 -4.75,-4.1 -6.24,-7.41 -1.49,-3.29 -2.22,-7.47 -2.25,-12.48 0,-3.89 0.42,-7.73 1.23,-11.49 0.84,-3.76 2.04,-7.31 3.6,-10.63 1.59,-3.32 3.5,-6.24 5.77,-8.8 2.25,-2.53 4.8,-4.52 7.7,-5.98 2.87,-1.44 6.03,-2.17 9.45,-2.19 2.82,0.03 5.38,0.52 7.7,1.52 2.32,0.96 4.41,2.25 6.19,3.81 1.8,1.57 3.32,3.26 4.54,5.06l21.36 -16.37c-1.96,-3.34 -4.31,-6.32 -7.08,-8.9 -2.77,-2.59 -5.82,-4.73 -9.14,-6.5 -3.34,-1.75 -6.87,-3.05 -10.52,-3.97 -3.68,-0.89 -7.41,-1.33 -11.2,-1.33 -7.23,0.03 -13.91,1.18 -20.02,3.45 -6.14,2.27 -11.64,5.48 -16.5,9.61 -4.86,4.13 -9.01,9.03 -12.43,14.65 -3.42,5.64 -6.03,11.85 -7.83,18.61 -1.8,6.76 -2.72,13.92 -2.74,21.43 0.05,7.94 1.23,14.83 3.58,20.68 2.32,5.85 5.59,10.68 9.76,14.51 4.15,3.84 9.01,6.68 14.54,8.56 5.53,1.88 11.51,2.82 17.93,2.82 5.4,-0.03 10.68,-0.63 15.87,-1.78 5.19,-1.15 10.02,-2.72 14.51,-4.73 4.49,-1.98 8.38,-4.26 11.7,-6.81l5.95 -51.45zm37.62 63.26l13.6 -111.29 -28.82 0 -13.63 111.29 28.85 0zm85.29 -59.65l0 -0.21c2.74,-1.46 5.14,-3.26 7.21,-5.4 2.06,-2.14 3.81,-4.49 5.2,-7.08 1.38,-2.56 2.45,-5.25 3.16,-8.01 0.68,-2.77 1.05,-5.51 1.05,-8.22 0.03,-4.88 -0.99,-9.01 -3.03,-12.38 -2.06,-3.39 -5.25,-5.95 -9.56,-7.7 -4.33,-1.75 -9.89,-2.64 -16.71,-2.64l-40.7 0 -13.6 111.29 46.42 0c5.51,-0.03 10.47,-0.97 14.85,-2.82 4.41,-1.83 8.2,-4.44 11.3,-7.81 3.13,-3.37 5.53,-7.36 7.21,-11.96 1.64,-4.6 2.48,-9.66 2.51,-15.19 0.03,-3.34 -0.47,-6.45 -1.46,-9.24 -0.99,-2.82 -2.64,-5.3 -4.88,-7.44 -2.25,-2.14 -5.22,-3.86 -8.96,-5.2l0 0zm-24.02 -7.41l-7.26 0 2.45 -19.45 8.95 0c2.69,0 4.7,0.6 6,1.78 1.31,1.15 1.96,2.85 1.93,5.04 0,2.32 -0.52,4.44 -1.54,6.34 -1.02,1.91 -2.43,3.42 -4.26,4.54 -1.8,1.15 -3.89,1.72 -6.29,1.75l0 0zm-3.6 42.58l-8.85 0 2.66 -21.46 11.33 0c3.13,0.03 5.46,0.71 6.97,2.06 1.51,1.33 2.3,3.19 2.27,5.51 -0.03,2.53 -0.65,4.85 -1.88,6.94 -1.25,2.09 -2.95,3.76 -5.09,5.01 -2.17,1.25 -4.62,1.91 -7.41,1.93zm116.17 -15.74c4.51,-2.48 8.35,-5.69 11.46,-9.61 3.11,-3.91 5.48,-8.43 7.08,-13.52 1.62,-5.07 2.43,-10.63 2.43,-16.66 0,-4.36 -0.6,-8.43 -1.83,-12.22 -1.23,-3.76 -3.11,-7.08 -5.69,-9.92 -2.56,-2.87 -5.88,-5.09 -9.9,-6.68 -4.05,-1.62 -8.88,-2.43 -14.49,-2.45l-40.44 0 -13.63 111.29 27.7 0 4.2 -34.64 5.59 0 14.15 34.64 31.2 0 -17.91 -39.84 0.08 -0.39zm-26.76 -46.05l8.49 0c1.62,-0.03 3.16,0.29 4.65,0.94 1.49,0.65 2.72,1.75 3.66,3.29 0.97,1.54 1.46,3.63 1.49,6.26 0,2.14 -0.34,4.2 -1.02,6.19 -0.65,1.96 -1.62,3.71 -2.9,5.25 -1.25,1.54 -2.77,2.77 -4.57,3.66 -1.78,0.89 -3.81,1.33 -6.03,1.36l-7.05 0 3.29 -26.94zm115.18 86.28l29.45 0 -22.56 -111.29 -26.63 0 -49.86 111.29 29.89 0 7.28 -18.74 29.73 0 2.69 18.74zm-23.1 -42.68l12.24 -31.43 0.31 0 4.44 31.43 -17 0zm134.6 -68.61l-7.49 61.27 -0.24 0 -24.1 -61.27 -27.91 0 -13.63 111.29 28.22 0 7.28 -59.13 0.29 0 23.49 59.13 28.69 0 13.68 -111.29 -28.3 0zm732.98 78.24l-18.2 18.87c1.88,3.52 4.23,6.45 7.07,8.77 2.85,2.32 6.01,4.05 9.43,5.2 3.44,1.15 7,1.72 10.65,1.72 8.09,-0.03 14.78,-1.75 20.07,-5.22 5.3,-3.47 9.45,-8.56 12.45,-15.32 2.98,-6.76 5.07,-15.09 6.24,-24.96l8.28 -67.3 -28.3 0 -8.35 67.62c-0.5,3.92 -1.12,7.07 -1.88,9.5 -0.73,2.4 -1.59,4.2 -2.53,5.45 -0.94,1.23 -1.96,2.06 -3.06,2.48 -1.07,0.44 -2.22,0.62 -3.37,0.6 -1.9,-0.02 -3.57,-0.73 -5.04,-2.06 -1.46,-1.36 -2.61,-3.13 -3.47,-5.35l0 0zm121.03 -79.75c-7.28,0.03 -13.99,1.23 -20.13,3.55 -6.14,2.32 -11.62,5.59 -16.47,9.76 -4.83,4.18 -8.96,9.06 -12.32,14.67 -3.39,5.59 -5.98,11.7 -7.75,18.27 -1.78,6.58 -2.66,13.45 -2.69,20.57 0.03,7.57 1.12,14.31 3.26,20.18 2.14,5.9 5.22,10.86 9.22,14.91 4.02,4.07 8.8,7.13 14.36,9.24 5.59,2.09 11.8,3.13 18.66,3.16 7.6,-0.03 14.49,-1.18 20.73,-3.45 6.21,-2.27 11.75,-5.46 16.53,-9.58 4.8,-4.1 8.85,-8.98 12.11,-14.57 3.29,-5.61 5.77,-11.77 7.47,-18.51 1.67,-6.71 2.53,-13.81 2.53,-21.25 -0.03,-7.44 -1.12,-14.05 -3.29,-19.87 -2.17,-5.8 -5.27,-10.73 -9.29,-14.75 -3.99,-4.02 -8.8,-7.08 -14.36,-9.19 -5.56,-2.09 -11.75,-3.13 -18.56,-3.16zm-11.72 87.77c-3.34,0.03 -6.37,-0.78 -9.11,-2.4 -2.72,-1.62 -4.91,-4.13 -6.53,-7.52 -1.62,-3.39 -2.43,-7.73 -2.48,-13 0,-4.02 0.47,-7.91 1.36,-11.64 0.89,-3.76 2.14,-7.23 3.79,-10.47 1.62,-3.21 3.58,-6.03 5.82,-8.46 2.27,-2.43 4.75,-4.31 7.49,-5.67 2.74,-1.36 5.67,-2.04 8.77,-2.06 3.47,-0.03 6.63,0.76 9.42,2.32 2.79,1.57 5.01,3.99 6.66,7.28 1.65,3.32 2.48,7.57 2.51,12.79 0,5.56 -0.68,10.7 -2.01,15.4 -1.33,4.73 -3.24,8.82 -5.69,12.32 -2.45,3.5 -5.38,6.21 -8.74,8.15 -3.4,1.93 -7.13,2.92 -11.25,2.95l0 0zm163.35 -86.25l-35.32 0 -26.63 35.35 -0.24 0 4.28 -35.35 -28.27 0 -13.63 111.29 28.22 0 3.89 -32.97 5.51 -6.34 0.24 0 15.77 39.32 33.73 0 -28.77 -63.57 41.22 -47.72zm57.38 -1.51c-7.28,0.03 -13.99,1.23 -20.13,3.55 -6.13,2.32 -11.62,5.59 -16.47,9.76 -4.83,4.18 -8.96,9.06 -12.32,14.67 -3.39,5.59 -5.98,11.7 -7.75,18.27 -1.78,6.58 -2.66,13.45 -2.69,20.57 0.03,7.57 1.12,14.31 3.26,20.18 2.14,5.9 5.22,10.86 9.22,14.91 4.02,4.07 8.8,7.13 14.36,9.24 5.58,2.09 11.8,3.13 18.66,3.16 7.6,-0.03 14.49,-1.18 20.73,-3.45 6.21,-2.27 11.75,-5.46 16.52,-9.58 4.8,-4.1 8.85,-8.98 12.11,-14.57 3.29,-5.61 5.77,-11.77 7.46,-18.51 1.67,-6.71 2.53,-13.81 2.53,-21.25 -0.03,-7.44 -1.12,-14.05 -3.29,-19.87 -2.17,-5.8 -5.27,-10.73 -9.29,-14.75 -3.99,-4.02 -8.8,-7.08 -14.36,-9.19 -5.56,-2.09 -11.75,-3.13 -18.56,-3.16zm-11.72 87.77c-3.34,0.03 -6.37,-0.78 -9.11,-2.4 -2.72,-1.62 -4.91,-4.13 -6.53,-7.52 -1.62,-3.39 -2.43,-7.73 -2.48,-13 0,-4.02 0.47,-7.91 1.36,-11.64 0.89,-3.76 2.14,-7.23 3.79,-10.47 1.62,-3.21 3.58,-6.03 5.82,-8.46 2.27,-2.43 4.75,-4.31 7.49,-5.67 2.74,-1.36 5.66,-2.04 8.77,-2.06 3.47,-0.03 6.63,0.76 9.42,2.32 2.79,1.57 5.01,3.99 6.66,7.28 1.65,3.32 2.48,7.57 2.51,12.79 0,5.56 -0.68,10.7 -2.01,15.4 -1.33,4.73 -3.24,8.82 -5.69,12.32 -2.45,3.5 -5.38,6.21 -8.75,8.15 -3.39,1.93 -7.13,2.92 -11.25,2.95l0 0zm181.88 -86.25l-21.35 62.78 -0.29 0 -4.75 -62.78 -29.29 0 -20.42 62.78 -0.24 0 -6.34 -62.78 -29.45 0 17.44 111.29 25.32 0 23.03 -65.71 0.29 0 6.21 65.71 25.3 0 44.67 -111.29 -30.13 0zm55.89 111.29l13.6 -111.29 -28.82 0 -13.63 111.29 28.85 0z"/>
   <path class="fil0" d="M117.35 1370.99l0.77 0.42 0.88 -7.19 109.63 0c4.28,0 8.62,0.35 13.02,1.04 4.78,0.75 9.06,1.9 12.84,3.42l0.1 0 1.48 0.63 0.62 -5.09 62.25 0 0.1 0.1c4.34,0.02 8.27,0.33 11.78,0.92 4.13,0.7 8.05,1.78 11.76,3.27l-0.01 0.03c3.84,1.53 7.23,3.28 10.16,5.25 3.34,2.25 6.34,4.87 9,7.85 2.47,2.77 4.58,5.69 6.34,8.76 0.55,0.96 1.07,1.96 1.57,2.97l13.06 -29.15 62.56 0 1.88 9.27 1.14 -9.27 137.69 0 -19.74 160.6 -169.24 0 -0.43 -3.01 -1.17 3.01 -158.35 0 0.26 -2.15c-1.37,0.36 -2.76,0.68 -4.16,0.95 -3.79,0.72 -7.89,1.09 -12.28,1.11l-0.1 0.1 -121.41 0 0.37 -3.03c-2.44,0.73 -5.17,1.43 -8.16,2.1 -3.75,0.83 -7.24,1.43 -10.46,1.79 -3.15,0.35 -6.69,0.54 -10.62,0.56l-0.1 0.1c-4.08,0 -8.44,-0.36 -13.05,-1.09 -4.61,-0.72 -8.87,-1.75 -12.78,-3.08 -4.23,-1.44 -8.35,-3.33 -12.33,-5.68 -3.86,-2.28 -7.51,-4.99 -10.92,-8.14l-0.05 0.05c-3.44,-3.16 -6.56,-6.81 -9.35,-10.95 -2.54,-3.77 -4.72,-7.95 -6.55,-12.54l-0.03 0.01c-1.85,-4.62 -3.22,-9.47 -4.09,-14.56 -0.77,-4.5 -1.18,-9.56 -1.21,-15.17l0 -0.1c0.02,-4.84 0.32,-9.54 0.9,-14.09 0.62,-4.87 1.5,-9.41 2.61,-13.6 1.16,-4.34 2.65,-8.68 4.47,-13.01 1.74,-4.13 3.79,-8.16 6.16,-12.05l0 -0.1c2.39,-3.92 5.03,-7.59 7.9,-10.98 2.95,-3.47 6.16,-6.69 9.63,-9.64 3.5,-2.97 7.28,-5.64 11.34,-8 4.02,-2.34 8.22,-4.32 12.58,-5.94l0.02 0.05c4.65,-1.72 9.29,-2.98 13.9,-3.77 4.41,-0.76 9.28,-1.15 14.58,-1.17l0 -0.1c2.74,0 5.59,0.18 8.53,0.53 2.51,0.3 5.33,0.82 8.45,1.58l0.19 0c2.63,0.66 5.34,1.51 8.14,2.56 2.45,0.92 5.04,2.1 7.77,3.52l0.19 0.1zm92.69 42.54l-0.3 0 -0.08 0.63 0.38 0.35 0 -0.98zm-0.38 0.63l-0.34 2.78 0.71 0.38 0 -2.81 -0.38 -0.35zm-0.34 2.78l-0.25 2.03 0.96 0.23 0 -1.88 -0.71 -0.38zm-0.25 2.03l-0.15 1.26 1.12 0.01 0 -1.04 -0.96 -0.23zm-0.15 1.26l-0.03 0.24 1.15 0 0 -0.23 -1.12 -0.01zm-0.03 0.24l-0.6 4.94 1.75 -0.67 0 -4.28 -1.15 0zm-0.61 4.98l-0.34 2.77 0.95 1.35 1.15 0 0 -4.79 -1.76 0.67zm-3.99 32.68l-0.12 0.96 0.67 0.18 0 -1.51 -0.38 0 -0.17 0.36zm-0.13 1.06l-0.3 2.43 0.98 0.01 0 -2.25 -0.68 -0.18zm-0.3 2.43l-0.04 0.3c0.31,1.06 0.77,3.3 1.02,4.83l0 -5.12 -0.98 -0.01zm95.74 -42.42l-0.2 1.62 0.41 0.34 0 -2.18 -0.21 0.22zm-0.2 1.62l-0.04 0.31 0.45 0.36 0 -0.33 -0.41 -0.34zm-0.04 0.31l-0.16 1.3 0.61 0.33 0 -1.27 -0.45 -0.36zm-0.16 1.3l-0.11 0.88 0.71 0.24 0 -0.79 -0.61 -0.33zm-0.11 0.88l-0.03 0.25 0.75 0.25 0 -0.25 -0.71 -0.24zm-0.03 0.25l-0.05 0.41 0.8 0.13 0 -0.29 -0.75 -0.25zm-0.05 0.41l-0.05 0.44 0.85 0 0 -0.31 -0.8 -0.13zm-0.08 0.62l-0.19 1.55 1.06 -0.25 0 -1.3 -0.87 0.01zm-0.19 1.55l-0.36 2.98 0.73 1.71 0.7 -0.42 0 -4.51 -1.06 0.25zm0.49 5.03l0.57 0.65 0 -1.12 -0.6 0.38 0.03 0.1zm-0.13 -0.35l0.7 -0.42 0 0.3 -0.6 0.38 -0.09 -0.25zm927.73 38.16l33.14 -34.37 8.69 -70.35 77.94 0 -0.97 7.88c2.96,-1.57 6.07,-2.97 9.35,-4.21 4.63,-1.75 9.33,-3.05 14.1,-3.9 4.39,-0.77 9.29,-1.18 14.69,-1.19 5,0.02 9.61,0.38 13.8,1.09 4.54,0.77 8.99,1.97 13.34,3.61l0.1 0c4.45,1.69 8.59,3.76 12.41,6.21l-0.03 0.04c0.9,0.58 1.78,1.17 2.64,1.78l1.39 -11.32 149.47 0 1.2 -0.22c4.39,-0.77 9.29,-1.18 14.69,-1.19 5,0.02 9.61,0.38 13.8,1.09 4.54,0.77 8.99,1.97 13.34,3.61l0.1 0c0.94,0.36 1.86,0.73 2.78,1.12l-0.69 -4.4 238.18 0 -19.63 160.6 -193.39 0 -4.47 -28.55 -1.12 1.37c-3.01,3.61 -6.18,6.85 -9.51,9.69 -3.58,3.06 -7.36,5.76 -11.35,8.07 -3.98,2.31 -8.25,4.29 -12.78,5.94 -4.58,1.67 -9.31,2.91 -14.19,3.72l-0.1 0c-4.57,0.76 -9.51,1.15 -14.82,1.17 -5.02,-0.02 -9.65,-0.38 -13.86,-1.09 -1.4,-0.24 -2.79,-0.51 -4.17,-0.83l0.23 0.51 -153.37 0 0.95 -7.71c-3.07,1.59 -6.3,3.01 -9.67,4.24 -4.58,1.67 -9.31,2.91 -14.19,3.72l-0.1 0c-4.57,0.76 -9.51,1.15 -14.82,1.17 -5.02,-0.02 -9.65,-0.38 -13.86,-1.09 -4.53,-0.77 -9,-1.97 -13.38,-3.6l-0.1 0c-4.45,-1.69 -8.58,-3.76 -12.38,-6.2 -3.87,-2.49 -7.48,-5.42 -10.84,-8.82l-1.2 -1.26 -0.22 0.27c-3.75,4.61 -7.98,8.46 -12.68,11.53 -4.81,3.15 -10.24,5.51 -16.31,7.08 -5.3,1.37 -11.05,2.07 -17.25,2.09l0 0.1c-2.81,0 -5.9,-0.27 -9.26,-0.82 -3.02,-0.49 -6.06,-1.24 -9.1,-2.25l-0.1 0c-3.24,-1.09 -6.25,-2.39 -9,-3.91 -2.77,-1.53 -5.49,-3.37 -8.13,-5.53l-0.1 0c-2.62,-2.14 -5.11,-4.68 -7.46,-7.6 -2.06,-2.56 -3.96,-5.46 -5.68,-8.69l-8.42 -15.77 12.37 -12.83zm29.88 -10.08l0 -0.03c-0.01,0.06 -0.03,0.12 0,0.03z"/>
   <path class="fil0" d="M641.05 1388.87l-39.52 0 -13.63 111.29 27.7 0 4.2 -34.64 8.64 0c7.1,-0.03 13.42,-1.15 18.93,-3.34 5.53,-2.19 10.21,-5.33 14.02,-9.35 3.81,-4.05 6.68,-8.82 8.67,-14.36 1.99,-5.53 2.98,-11.64 2.98,-18.33 0,-4.36 -0.6,-8.43 -1.83,-12.22 -1.23,-3.76 -3.13,-7.08 -5.72,-9.92 -2.58,-2.87 -5.9,-5.09 -9.95,-6.68 -4.05,-1.62 -8.88,-2.43 -14.49,-2.45l0 0zm-12.06 51.95l-6.14 0 3.29 -26.94 7.57 0c1.62,-0.03 3.16,0.29 4.65,0.94 1.49,0.65 2.72,1.75 3.66,3.29 0.97,1.54 1.46,3.63 1.49,6.26 0,2.93 -0.6,5.61 -1.78,8.09 -1.18,2.48 -2.85,4.49 -5.01,6.01 -2.17,1.51 -4.75,2.3 -7.73,2.35l0 0zm118.99 34.09l-42.37 0 2.14 -17.52 30.68 0 2.97 -24.69 -30.59 0 2.3 -18.51 39.47 0 3.05 -25.32 -66.99 0 -13.63 111.29 69.91 0 3.05 -25.24zm84.06 -86.05l-7.49 61.27 -0.24 0 -24.1 -61.27 -27.91 0 -13.63 111.29 28.22 0 7.28 -59.13 0.29 0 23.49 59.13 28.69 0 13.68 -111.29 -28.3 0zm104.92 86.05l-42.37 0 2.14 -17.52 30.68 0 2.97 -24.69 -30.59 0 2.3 -18.51 39.47 0 3.05 -25.32 -66.99 0 -13.63 111.29 69.91 0 3.05 -25.24zm75.71 -14.99c4.51,-2.48 8.35,-5.69 11.46,-9.61 3.11,-3.91 5.48,-8.43 7.08,-13.52 1.62,-5.07 2.43,-10.63 2.43,-16.66 0,-4.36 -0.6,-8.43 -1.83,-12.22 -1.23,-3.76 -3.11,-7.08 -5.69,-9.92 -2.56,-2.87 -5.87,-5.09 -9.9,-6.68 -4.05,-1.62 -8.88,-2.43 -14.49,-2.45l-40.44 0 -13.63 111.29 27.7 0 4.2 -34.64 5.59 0 14.15 34.64 31.2 0 -17.91 -39.84 0.08 -0.39zm-26.76 -46.05l8.49 0c1.62,-0.03 3.16,0.29 4.65,0.94 1.49,0.65 2.72,1.75 3.66,3.29 0.97,1.54 1.46,3.63 1.49,6.26 0,2.14 -0.34,4.2 -1.02,6.19 -0.65,1.96 -1.62,3.71 -2.9,5.25 -1.25,1.54 -2.77,2.77 -4.57,3.66 -1.78,0.89 -3.81,1.33 -6.03,1.36l-7.05 0 3.29 -26.94zm144.31 40.31l8.02 -65.32 -28.3 0 -7.94 64.46c-0.68,5.61 -1.75,10 -3.21,13.21 -1.46,3.21 -3.34,5.48 -5.67,6.81 -2.32,1.33 -5.14,1.98 -8.41,1.93 -2.77,-0.02 -4.98,-0.73 -6.6,-2.12 -1.65,-1.41 -2.82,-3.34 -3.52,-5.79 -0.73,-2.48 -1.07,-5.35 -1.05,-8.62 0,-1.49 0.08,-3.05 0.18,-4.67 0.13,-1.62 0.31,-3.26 0.5,-4.96l7.41 -60.25 -28.38 0 -7.49 60.41c-0.26,2.27 -0.47,4.46 -0.6,6.58 -0.16,2.14 -0.24,4.2 -0.24,6.19 -0.03,8.35 1.28,15.46 3.92,21.35 2.61,5.9 6.68,10.42 12.22,13.55 5.54,3.11 12.66,4.7 21.36,4.73 6.81,0.03 12.92,-0.78 18.33,-2.4 5.43,-1.65 10.13,-4.31 14.15,-7.99 3.99,-3.68 7.28,-8.56 9.84,-14.65 2.56,-6.11 4.38,-13.57 5.48,-22.45l0 0zm56.08 -22.95c-2.72,-1.62 -4.8,-3.08 -6.21,-4.41 -1.41,-1.33 -2.38,-2.56 -2.9,-3.68 -0.52,-1.12 -0.76,-2.25 -0.76,-3.29 -0.03,-1.46 0.31,-2.77 1.02,-3.92 0.73,-1.12 1.72,-2.01 3,-2.66 1.28,-0.65 2.74,-0.99 4.39,-0.99 1.62,-0.03 3.24,0.18 4.91,0.65 1.67,0.44 3.42,1.36 5.22,2.69 1.8,1.36 3.71,3.32 5.72,5.9l19.89 -16.66c-1.93,-3 -4.23,-5.61 -6.84,-7.81 -2.61,-2.19 -5.46,-4.02 -8.54,-5.46 -3.08,-1.44 -6.27,-2.51 -9.58,-3.21 -3.32,-0.71 -6.63,-1.05 -9.92,-1.05 -5.43,0.03 -10.49,0.86 -15.19,2.51 -4.67,1.64 -8.8,4.05 -12.32,7.15 -3.55,3.11 -6.32,6.87 -8.3,11.25 -2.01,4.38 -3.03,9.32 -3.05,14.8 0.05,4.67 0.86,8.75 2.43,12.17 1.59,3.42 3.68,6.4 6.32,8.95 2.64,2.53 5.56,4.8 8.77,6.81 3.21,2.04 6.47,3.97 9.79,5.85 3.29,1.9 5.9,3.5 7.83,4.8 1.93,1.28 3.32,2.45 4.13,3.52 0.83,1.07 1.23,2.22 1.2,3.45 0,1.44 -0.39,2.74 -1.2,3.94 -0.81,1.2 -2.04,2.17 -3.68,2.9 -1.65,0.73 -3.71,1.1 -6.21,1.12 -2.17,0 -4.44,-0.44 -6.81,-1.36 -2.35,-0.92 -4.67,-2.3 -6.94,-4.18 -2.27,-1.88 -4.33,-4.26 -6.19,-7.15l-20.05 17.36c2.48,3.79 5.25,7 8.35,9.61 3.13,2.61 6.42,4.73 9.9,6.29 3.47,1.59 7,2.74 10.55,3.47 3.58,0.71 7.05,1.04 10.44,1.04 6.19,0 11.83,-0.86 16.89,-2.53 5.07,-1.67 9.42,-4.12 13.05,-7.34 3.66,-3.24 6.47,-7.15 8.43,-11.77 1.98,-4.65 2.98,-9.92 3,-15.82 -0.02,-3.5 -0.55,-6.58 -1.56,-9.24 -1.02,-2.64 -2.48,-5.01 -4.36,-7.08 -1.85,-2.09 -4.07,-4.02 -6.6,-5.8 -2.56,-1.78 -5.35,-3.53 -8.38,-5.27 -3.03,-1.75 -6.24,-3.6 -9.61,-5.59l0 0z"/>
   <path class="fil0" d="M601.53 1364.22l39.52 0 0.1 0.1c4.34,0.02 8.27,0.33 11.78,0.92 4.05,0.68 7.91,1.75 11.56,3.19l0.01 -0.02 1.74 0.72 0.6 -4.91 334.9 0 0.1 0.1c4.34,0.02 8.27,0.33 11.78,0.92 4.13,0.7 8.05,1.78 11.76,3.27l-0.01 0.03c1.87,0.74 3.64,1.54 5.3,2.4l0.83 -6.71 134.6 0 -0.16 1.31c2.6,-0.75 5.25,-1.35 7.95,-1.8 3.65,-0.6 7.56,-0.91 11.72,-0.93l0.1 -0.1c2.11,0 4.6,0.15 7.49,0.45 2.68,0.28 5.19,0.67 7.53,1.17 2.39,0.51 4.92,1.21 7.58,2.1 2.87,0.96 5.3,1.91 7.3,2.84 2.1,0.98 4.52,2.35 7.22,4.07 2.27,1.45 4.5,3.09 6.66,4.91l0.05 -0.06c2.15,1.81 4.29,3.91 6.38,6.31 2.03,2.31 3.82,4.68 5.37,7.08l11.73 18.23 -24.73 20.71 0.77 0.84 0.04 -0.03c2.05,2.24 3.81,4.57 5.29,6.98l-0.07 0.04c1.54,2.49 2.83,5.09 3.86,7.76l0.1 0.1c1.05,2.75 1.86,5.76 2.41,9.03 0.44,2.61 0.68,5.57 0.7,8.88l0 0.1c-0.02,4.65 -0.4,8.95 -1.15,12.91 -0.84,4.42 -2.09,8.61 -3.78,12.55l-0.03 -0.01c-1.79,4.22 -3.85,7.93 -6.15,11.14l-0.1 0c-2.46,3.43 -5.31,6.57 -8.51,9.41 -3.26,2.88 -6.67,5.33 -10.23,7.33 -3.6,2.02 -7.4,3.7 -11.39,5.01 -3.8,1.26 -7.87,2.21 -12.2,2.86 -4.08,0.61 -8.22,0.92 -12.39,0.92 -2.02,0 -4.53,-0.15 -7.56,-0.45 -2.86,-0.28 -5.4,-0.64 -7.6,-1.07l-0.19 -0.1c-3.11,-0.64 -5.83,-1.34 -8.13,-2.1l0.01 -0.03c-2.37,-0.78 -4.91,-1.79 -7.61,-3.02l-0.02 0.04c-2.57,-1.16 -5.3,-2.66 -8.16,-4.49 -2.12,-1.35 -4.18,-2.83 -6.18,-4.43 -2.97,2.55 -6.17,4.8 -9.62,6.74 -4.19,2.37 -8.37,4.19 -12.51,5.45l-0.1 0c-3.76,1.12 -7.93,1.99 -12.51,2.59 -4.06,0.53 -8.34,0.79 -12.85,0.77 -5.48,-0.02 -10.62,-0.49 -15.39,-1.42l-419.86 0 4.67 -38.16c-3.03,0.98 -6.07,1.74 -9.12,2.28l-0.97 0.16 -4.33 35.72 -77.36 0 19.66 -160.6 21.81 0zm21.21 54.2l-0 0.04 0.12 0.18 0 -0.26 -0.12 0.05zm-0 0.04l-0.36 2.97 0.49 0.41 0 -3.21 -0.12 -0.18zm-0.36 2.97l-0.01 0.08 0.5 0.41 0 -0.08 -0.49 -0.41zm-0.01 0.08l-0.21 1.72 0.71 0.33 0 -1.64 -0.5 -0.41zm-0.21 1.72l-0.09 0.72 0.8 0.18 0 -0.57 -0.71 -0.33zm-0.09 0.72l-0.05 0.43 0.85 0 0 -0.25 -0.8 -0.18zm-0.07 0.59l-0.16 1.33 1.03 -0.24 0 -1.1 -0.87 0.01zm-0.16 1.33l-0.59 4.86 0.02 0.04 1.61 -0.98 0 -4.17 -1.03 0.24zm1.03 7l0 -2.79 -1.52 0.95 0.03 0.09c0.38,0.42 0.96,1.1 1.49,1.75zm0 -2.79l0 -0.29 -1.61 0.98 0.09 0.25 1.52 -0.95zm359.55 -10.91l-0.2 1.62 0.41 0.34 0 -2.18 -0.21 0.22zm-0.2 1.62l-0.04 0.31 0.45 0.36 0 -0.33 -0.41 -0.34zm-0.04 0.31l-0.16 1.3 0.61 0.33 0 -1.27 -0.45 -0.36zm-0.16 1.3l-0.11 0.88 0.71 0.24 0 -0.79 -0.61 -0.33zm-0.11 0.88l-0.02 0.17 0.73 0.25 0 -0.17 -0.71 -0.24zm-0.02 0.17l-0.06 0.49 0.8 0.13 0 -0.38 -0.73 -0.25zm-0.06 0.49l-0.05 0.44 0.85 0 0 -0.31 -0.8 -0.13zm-0.08 0.62l-0.19 1.55 1.06 -0.25 0 -1.3 -0.87 0.01zm-0.19 1.55l-0.36 2.98 0.73 1.71 0.7 -0.42 0 -4.51 -1.06 0.25zm0.49 5.03l0.57 0.65 0 -1.12 -0.6 0.38 0.03 0.1zm-0.13 -0.35l0.7 -0.42 0 0.3 -0.6 0.38 -0.09 -0.25z"/>
   <g>
    <path class="fil1" d="M118.41 1436.91l-42.76 0 -2.82 23.1 15.98 0 -1.67 11.15c-2.69,1.62 -5.22,2.74 -7.57,3.37 -2.37,0.65 -4.72,0.94 -7.13,0.92 -3.63,0 -6.79,-0.81 -9.48,-2.43 -2.69,-1.64 -4.75,-4.1 -6.24,-7.41 -1.49,-3.29 -2.22,-7.47 -2.25,-12.48 0,-3.89 0.42,-7.73 1.23,-11.49 0.84,-3.76 2.04,-7.31 3.6,-10.63 1.59,-3.32 3.5,-6.24 5.77,-8.8 2.25,-2.53 4.8,-4.52 7.7,-5.98 2.87,-1.44 6.03,-2.17 9.45,-2.19 2.82,0.03 5.38,0.52 7.7,1.52 2.32,0.96 4.41,2.25 6.19,3.81 1.8,1.57 3.32,3.26 4.54,5.06l21.36 -16.37c-1.96,-3.34 -4.31,-6.32 -7.08,-8.9 -2.77,-2.59 -5.82,-4.73 -9.14,-6.5 -3.34,-1.75 -6.87,-3.05 -10.52,-3.97 -3.68,-0.89 -7.41,-1.33 -11.2,-1.33 -7.23,0.03 -13.91,1.18 -20.02,3.45 -6.14,2.27 -11.64,5.48 -16.5,9.61 -4.86,4.13 -9.01,9.03 -12.43,14.65 -3.42,5.64 -6.03,11.85 -7.83,18.61 -1.8,6.76 -2.72,13.92 -2.74,21.43 0.05,7.94 1.23,14.83 3.58,20.68 2.32,5.85 5.59,10.68 9.76,14.51 4.15,3.84 9.01,6.68 14.54,8.56 5.53,1.88 11.51,2.82 17.93,2.82 5.4,-0.03 10.68,-0.63 15.87,-1.78 5.19,-1.15 10.02,-2.72 14.51,-4.73 4.49,-1.98 8.38,-4.26 11.7,-6.81l5.95 -51.45zm37.62 63.26l13.6 -111.29 -28.82 0 -13.63 111.29 28.85 0zm85.29 -59.65l0 -0.21c2.74,-1.46 5.14,-3.26 7.21,-5.4 2.06,-2.14 3.81,-4.49 5.2,-7.08 1.38,-2.56 2.45,-5.25 3.16,-8.01 0.68,-2.77 1.05,-5.51 1.05,-8.22 0.03,-4.88 -0.99,-9.01 -3.03,-12.38 -2.06,-3.39 -5.25,-5.95 -9.56,-7.7 -4.33,-1.75 -9.89,-2.64 -16.71,-2.64l-40.7 0 -13.6 111.29 46.42 0c5.51,-0.03 10.47,-0.97 14.85,-2.82 4.41,-1.83 8.2,-4.44 11.3,-7.81 3.13,-3.37 5.53,-7.36 7.21,-11.96 1.64,-4.6 2.48,-9.66 2.51,-15.19 0.03,-3.34 -0.47,-6.45 -1.46,-9.24 -0.99,-2.82 -2.64,-5.3 -4.88,-7.44 -2.25,-2.14 -5.22,-3.86 -8.96,-5.2l0 0zm-24.02 -7.41l-7.26 0 2.45 -19.45 8.95 0c2.69,0 4.7,0.6 6,1.78 1.31,1.15 1.96,2.85 1.93,5.04 0,2.32 -0.52,4.44 -1.54,6.34 -1.02,1.91 -2.43,3.42 -4.26,4.54 -1.8,1.15 -3.89,1.72 -6.29,1.75l0 0zm-3.6 42.58l-8.85 0 2.66 -21.46 11.33 0c3.13,0.03 5.46,0.71 6.97,2.06 1.51,1.33 2.3,3.19 2.27,5.51 -0.03,2.53 -0.65,4.85 -1.88,6.94 -1.25,2.09 -2.95,3.76 -5.09,5.01 -2.17,1.25 -4.62,1.91 -7.41,1.93zm116.17 -15.74c4.51,-2.48 8.35,-5.69 11.46,-9.61 3.11,-3.91 5.48,-8.43 7.08,-13.52 1.62,-5.07 2.43,-10.63 2.43,-16.66 0,-4.36 -0.6,-8.43 -1.83,-12.22 -1.23,-3.76 -3.11,-7.08 -5.69,-9.92 -2.56,-2.87 -5.88,-5.09 -9.9,-6.68 -4.05,-1.62 -8.88,-2.43 -14.49,-2.45l-40.44 0 -13.63 111.29 27.7 0 4.2 -34.64 5.59 0 14.15 34.64 31.2 0 -17.91 -39.84 0.08 -0.39zm-26.76 -46.05l8.49 0c1.62,-0.03 3.16,0.29 4.65,0.94 1.49,0.65 2.72,1.75 3.66,3.29 0.97,1.54 1.46,3.63 1.49,6.26 0,2.14 -0.34,4.2 -1.02,6.19 -0.65,1.96 -1.62,3.71 -2.9,5.25 -1.25,1.54 -2.77,2.77 -4.57,3.66 -1.78,0.89 -3.81,1.33 -6.03,1.36l-7.05 0 3.29 -26.94zm115.18 86.28l29.45 0 -22.56 -111.29 -26.63 0 -49.86 111.29 29.89 0 7.28 -18.74 29.73 0 2.69 18.74zm-23.1 -42.68l12.24 -31.43 0.31 0 4.44 31.43 -17 0zm134.6 -68.61l-7.49 61.27 -0.24 0 -24.1 -61.27 -27.91 0 -13.63 111.29 28.22 0 7.28 -59.13 0.29 0 23.49 59.13 28.69 0 13.68 -111.29 -28.3 0zm732.98 78.24l-18.2 18.87c1.88,3.52 4.23,6.45 7.07,8.77 2.85,2.32 6.01,4.05 9.43,5.2 3.44,1.15 7,1.72 10.65,1.72 8.09,-0.03 14.78,-1.75 20.07,-5.22 5.3,-3.47 9.45,-8.56 12.45,-15.32 2.98,-6.76 5.07,-15.09 6.24,-24.96l8.28 -67.3 -28.3 0 -8.35 67.62c-0.5,3.92 -1.12,7.07 -1.88,9.5 -0.73,2.4 -1.59,4.2 -2.53,5.45 -0.94,1.23 -1.96,2.06 -3.06,2.48 -1.07,0.44 -2.22,0.62 -3.37,0.6 -1.9,-0.02 -3.57,-0.73 -5.04,-2.06 -1.46,-1.36 -2.61,-3.13 -3.47,-5.35l0 0zm121.03 -79.75c-7.28,0.03 -13.99,1.23 -20.13,3.55 -6.14,2.32 -11.62,5.59 -16.47,9.76 -4.83,4.18 -8.96,9.06 -12.32,14.67 -3.39,5.59 -5.98,11.7 -7.75,18.27 -1.78,6.58 -2.66,13.45 -2.69,20.57 0.03,7.57 1.12,14.31 3.26,20.18 2.14,5.9 5.22,10.86 9.22,14.91 4.02,4.07 8.8,7.13 14.36,9.24 5.59,2.09 11.8,3.13 18.66,3.16 7.6,-0.03 14.49,-1.18 20.73,-3.45 6.21,-2.27 11.75,-5.46 16.53,-9.58 4.8,-4.1 8.85,-8.98 12.11,-14.57 3.29,-5.61 5.77,-11.77 7.47,-18.51 1.67,-6.71 2.53,-13.81 2.53,-21.25 -0.03,-7.44 -1.12,-14.05 -3.29,-19.87 -2.17,-5.8 -5.27,-10.73 -9.29,-14.75 -3.99,-4.02 -8.8,-7.08 -14.36,-9.19 -5.56,-2.09 -11.75,-3.13 -18.56,-3.16zm-11.72 87.77c-3.34,0.03 -6.37,-0.78 -9.11,-2.4 -2.72,-1.62 -4.91,-4.13 -6.53,-7.52 -1.62,-3.39 -2.43,-7.73 -2.48,-13 0,-4.02 0.47,-7.91 1.36,-11.64 0.89,-3.76 2.14,-7.23 3.79,-10.47 1.62,-3.21 3.58,-6.03 5.82,-8.46 2.27,-2.43 4.75,-4.31 7.49,-5.67 2.74,-1.36 5.67,-2.04 8.77,-2.06 3.47,-0.03 6.63,0.76 9.42,2.32 2.79,1.57 5.01,3.99 6.66,7.28 1.65,3.32 2.48,7.57 2.51,12.79 0,5.56 -0.68,10.7 -2.01,15.4 -1.33,4.73 -3.24,8.82 -5.69,12.32 -2.45,3.5 -5.38,6.21 -8.74,8.15 -3.4,1.93 -7.13,2.92 -11.25,2.95l0 0zm163.35 -86.25l-35.32 0 -26.63 35.35 -0.24 0 4.28 -35.35 -28.27 0 -13.63 111.29 28.22 0 3.89 -32.97 5.51 -6.34 0.24 0 15.77 39.32 33.73 0 -28.77 -63.57 41.22 -47.72zm57.38 -1.51c-7.28,0.03 -13.99,1.23 -20.13,3.55 -6.13,2.32 -11.62,5.59 -16.47,9.76 -4.83,4.18 -8.96,9.06 -12.32,14.67 -3.39,5.59 -5.98,11.7 -7.75,18.27 -1.78,6.58 -2.66,13.45 -2.69,20.57 0.03,7.57 1.12,14.31 3.26,20.18 2.14,5.9 5.22,10.86 9.22,14.91 4.02,4.07 8.8,7.13 14.36,9.24 5.58,2.09 11.8,3.13 18.66,3.16 7.6,-0.03 14.49,-1.18 20.73,-3.45 6.21,-2.27 11.75,-5.46 16.52,-9.58 4.8,-4.1 8.85,-8.98 12.11,-14.57 3.29,-5.61 5.77,-11.77 7.46,-18.51 1.67,-6.71 2.53,-13.81 2.53,-21.25 -0.03,-7.44 -1.12,-14.05 -3.29,-19.87 -2.17,-5.8 -5.27,-10.73 -9.29,-14.75 -3.99,-4.02 -8.8,-7.08 -14.36,-9.19 -5.56,-2.09 -11.75,-3.13 -18.56,-3.16zm-11.72 87.77c-3.34,0.03 -6.37,-0.78 -9.11,-2.4 -2.72,-1.62 -4.91,-4.13 -6.53,-7.52 -1.62,-3.39 -2.43,-7.73 -2.48,-13 0,-4.02 0.47,-7.91 1.36,-11.64 0.89,-3.76 2.14,-7.23 3.79,-10.47 1.62,-3.21 3.58,-6.03 5.82,-8.46 2.27,-2.43 4.75,-4.31 7.49,-5.67 2.74,-1.36 5.66,-2.04 8.77,-2.06 3.47,-0.03 6.63,0.76 9.42,2.32 2.79,1.57 5.01,3.99 6.66,7.28 1.65,3.32 2.48,7.57 2.51,12.79 0,5.56 -0.68,10.7 -2.01,15.4 -1.33,4.73 -3.24,8.82 -5.69,12.32 -2.45,3.5 -5.38,6.21 -8.75,8.15 -3.39,1.93 -7.13,2.92 -11.25,2.95l0 0zm181.88 -86.25l-21.35 62.78 -0.29 0 -4.75 -62.78 -29.29 0 -20.42 62.78 -0.24 0 -6.34 -62.78 -29.45 0 17.44 111.29 25.32 0 23.03 -65.71 0.29 0 6.21 65.71 25.3 0 44.67 -111.29 -30.13 0zm55.89 111.29l13.6 -111.29 -28.82 0 -13.63 111.29 28.85 0z"/>
    <path class="fil2" d="M641.05 1388.87l-39.52 0 -13.63 111.29 27.7 0 4.2 -34.64 8.64 0c7.1,-0.03 13.42,-1.15 18.93,-3.34 5.53,-2.19 10.21,-5.33 14.02,-9.35 3.81,-4.05 6.68,-8.82 8.67,-14.36 1.99,-5.53 2.98,-11.64 2.98,-18.33 0,-4.36 -0.6,-8.43 -1.83,-12.22 -1.23,-3.76 -3.13,-7.08 -5.72,-9.92 -2.58,-2.87 -5.9,-5.09 -9.95,-6.68 -4.05,-1.62 -8.88,-2.43 -14.49,-2.45l0 0zm-12.06 51.95l-6.14 0 3.29 -26.94 7.57 0c1.62,-0.03 3.16,0.29 4.65,0.94 1.49,0.65 2.72,1.75 3.66,3.29 0.97,1.54 1.46,3.63 1.49,6.26 0,2.93 -0.6,5.61 -1.78,8.09 -1.18,2.48 -2.85,4.49 -5.01,6.01 -2.17,1.51 -4.75,2.3 -7.73,2.35l0 0zm118.99 34.09l-42.37 0 2.14 -17.52 30.68 0 2.97 -24.69 -30.59 0 2.3 -18.51 39.47 0 3.05 -25.32 -66.99 0 -13.63 111.29 69.91 0 3.05 -25.24zm84.06 -86.05l-7.49 61.27 -0.24 0 -24.1 -61.27 -27.91 0 -13.63 111.29 28.22 0 7.28 -59.13 0.29 0 23.49 59.13 28.69 0 13.68 -111.29 -28.3 0zm104.92 86.05l-42.37 0 2.14 -17.52 30.68 0 2.97 -24.69 -30.59 0 2.3 -18.51 39.47 0 3.05 -25.32 -66.99 0 -13.63 111.29 69.91 0 3.05 -25.24zm75.71 -14.99c4.51,-2.48 8.35,-5.69 11.46,-9.61 3.11,-3.91 5.48,-8.43 7.08,-13.52 1.62,-5.07 2.43,-10.63 2.43,-16.66 0,-4.36 -0.6,-8.43 -1.83,-12.22 -1.23,-3.76 -3.11,-7.08 -5.69,-9.92 -2.56,-2.87 -5.87,-5.09 -9.9,-6.68 -4.05,-1.62 -8.88,-2.43 -14.49,-2.45l-40.44 0 -13.63 111.29 27.7 0 4.2 -34.64 5.59 0 14.15 34.64 31.2 0 -17.91 -39.84 0.08 -0.39zm-26.76 -46.05l8.49 0c1.62,-0.03 3.16,0.29 4.65,0.94 1.49,0.65 2.72,1.75 3.66,3.29 0.97,1.54 1.46,3.63 1.49,6.26 0,2.14 -0.34,4.2 -1.02,6.19 -0.65,1.96 -1.62,3.71 -2.9,5.25 -1.25,1.54 -2.77,2.77 -4.57,3.66 -1.78,0.89 -3.81,1.33 -6.03,1.36l-7.05 0 3.29 -26.94zm144.31 40.31l8.02 -65.32 -28.3 0 -7.94 64.46c-0.68,5.61 -1.75,10 -3.21,13.21 -1.46,3.21 -3.34,5.48 -5.67,6.81 -2.32,1.33 -5.14,1.98 -8.41,1.93 -2.77,-0.02 -4.98,-0.73 -6.6,-2.12 -1.65,-1.41 -2.82,-3.34 -3.52,-5.79 -0.73,-2.48 -1.07,-5.35 -1.05,-8.62 0,-1.49 0.08,-3.05 0.18,-4.67 0.13,-1.62 0.31,-3.26 0.5,-4.96l7.41 -60.25 -28.38 0 -7.49 60.41c-0.26,2.27 -0.47,4.46 -0.6,6.58 -0.16,2.14 -0.24,4.2 -0.24,6.19 -0.03,8.35 1.28,15.46 3.92,21.35 2.61,5.9 6.68,10.42 12.22,13.55 5.54,3.11 12.66,4.7 21.36,4.73 6.81,0.03 12.92,-0.78 18.33,-2.4 5.43,-1.65 10.13,-4.31 14.15,-7.99 3.99,-3.68 7.28,-8.56 9.84,-14.65 2.56,-6.11 4.38,-13.57 5.48,-22.45l0 0zm56.08 -22.95c-2.72,-1.62 -4.8,-3.08 -6.21,-4.41 -1.41,-1.33 -2.38,-2.56 -2.9,-3.68 -0.52,-1.12 -0.76,-2.25 -0.76,-3.29 -0.03,-1.46 0.31,-2.77 1.02,-3.92 0.73,-1.12 1.72,-2.01 3,-2.66 1.28,-0.65 2.74,-0.99 4.39,-0.99 1.62,-0.03 3.24,0.18 4.91,0.65 1.67,0.44 3.42,1.36 5.22,2.69 1.8,1.36 3.71,3.32 5.72,5.9l19.89 -16.66c-1.93,-3 -4.23,-5.61 -6.84,-7.81 -2.61,-2.19 -5.46,-4.02 -8.54,-5.46 -3.08,-1.44 -6.27,-2.51 -9.58,-3.21 -3.32,-0.71 -6.63,-1.05 -9.92,-1.05 -5.43,0.03 -10.49,0.86 -15.19,2.51 -4.67,1.64 -8.8,4.05 -12.32,7.15 -3.55,3.11 -6.32,6.87 -8.3,11.25 -2.01,4.38 -3.03,9.32 -3.05,14.8 0.05,4.67 0.86,8.75 2.43,12.17 1.59,3.42 3.68,6.4 6.32,8.95 2.64,2.53 5.56,4.8 8.77,6.81 3.21,2.04 6.47,3.97 9.79,5.85 3.29,1.9 5.9,3.5 7.83,4.8 1.93,1.28 3.32,2.45 4.13,3.52 0.83,1.07 1.23,2.22 1.2,3.45 0,1.44 -0.39,2.74 -1.2,3.94 -0.81,1.2 -2.04,2.17 -3.68,2.9 -1.65,0.73 -3.71,1.1 -6.21,1.12 -2.17,0 -4.44,-0.44 -6.81,-1.36 -2.35,-0.92 -4.67,-2.3 -6.94,-4.18 -2.27,-1.88 -4.33,-4.26 -6.19,-7.15l-20.05 17.36c2.48,3.79 5.25,7 8.35,9.61 3.13,2.61 6.42,4.73 9.9,6.29 3.47,1.59 7,2.74 10.55,3.47 3.58,0.71 7.05,1.04 10.44,1.04 6.19,0 11.83,-0.86 16.89,-2.53 5.07,-1.67 9.42,-4.12 13.05,-7.34 3.66,-3.24 6.47,-7.15 8.43,-11.77 1.98,-4.65 2.98,-9.92 3,-15.82 -0.02,-3.5 -0.55,-6.58 -1.56,-9.24 -1.02,-2.64 -2.48,-5.01 -4.36,-7.08 -1.85,-2.09 -4.07,-4.02 -6.6,-5.8 -2.56,-1.78 -5.35,-3.53 -8.38,-5.27 -3.03,-1.75 -6.24,-3.6 -9.61,-5.59l0 0z"/>
   </g>
   <g>
    <path class="fil2" d="M532.22 1327.75c31.96,0 63.35,-2.68 94.36,-7.66 31.01,-4.98 60.87,-11.87 89.38,-20.86 28.52,-8.81 54.93,-19.33 79.24,-31.01 24.31,-11.87 45.55,-24.88 63.93,-38.66l0 -379.55 -343.76 0 0 176.09 139.15 0 0 75.03c-14.55,6.7 -28.33,12.06 -41.54,16.08 -13.21,3.83 -26.41,6.7 -39.62,8.42 -13.02,1.72 -26.8,2.49 -41.15,2.49 -31.58,-0.19 -59.72,-6.12 -84.41,-17.42 -24.5,-11.48 -45.17,-27.18 -62.01,-47.27 -16.84,-20.1 -29.67,-43.07 -38.47,-68.91 -8.61,-26.03 -13.02,-53.59 -13.02,-82.88 0.19,-34.83 5.36,-65.84 15.5,-92.64 10.14,-26.99 23.93,-49.57 41.53,-67.95 17.42,-18.38 37.52,-32.35 60.1,-41.73 22.59,-9.38 46.32,-14.16 71.39,-14.16 28.33,0.19 53.98,4.21 76.75,11.68 22.78,7.66 42.88,17.23 60.48,28.9 17.42,11.48 32.35,23.54 44.98,35.79l154.65 -130.73c-20.86,-24.69 -44.21,-46.51 -70.63,-65.27 -26.22,-18.76 -54.17,-34.45 -83.64,-47.08 -29.67,-12.82 -59.91,-22.39 -90.73,-28.71 -30.82,-6.51 -61.44,-9.76 -91.49,-9.76 -53.02,0.19 -101.44,7.27 -145.09,21.25 -43.64,13.97 -82.3,33.69 -115.99,59.34 -33.69,25.65 -62.01,55.89 -85.17,90.92 -22.97,35.03 -40.58,73.69 -52.44,115.8 -11.87,42.3 -17.8,87.09 -17.8,134.36 0.19,53.78 7.46,102.59 21.63,146.42 14.16,43.83 34.26,82.49 60.1,116.18 26.03,33.5 56.65,61.63 92.06,84.41 35.41,22.78 74.26,40 116.76,51.49 42.68,11.68 87.66,17.61 134.94,17.61l0 0z"/>
    <path class="fil3" d="M859.07 1229.14l211.88 0 0 -249.01 92.06 0c47.09,0 89.58,-5.74 127.67,-17.42 38.09,-11.49 70.63,-28.9 97.81,-51.87 27.18,-23.16 48.04,-52.06 62.59,-86.51 14.55,-34.64 21.82,-75.03 22.01,-121.16 0,-42.11 -5.74,-80.58 -17.61,-115.8 -11.68,-35.22 -29.67,-65.84 -53.98,-91.87 -24.31,-26.03 -55.12,-46.13 -92.45,-60.48 -37.32,-14.35 -81.54,-21.63 -132.64,-21.82l-317.34 0 0 815.95zm211.88 -437.93l0 -186.23 57.23 0c26.41,0.19 48.23,4.6 65.65,13.02 17.42,8.42 30.43,19.72 39.05,33.69 8.8,14.16 13.02,29.48 13.02,46.32 -0.19,20.48 -5.17,37.52 -15.12,51.49 -9.76,13.78 -23.73,24.12 -41.34,31.2 -17.61,7.08 -38.28,10.53 -61.82,10.53l-56.65 0z"/>
    <path class="fil4" d="M1120.2 1042.25l0 185.23c518.39,0 614.27,-237.52 630.06,-597.99 0.01,-0.25 0.02,-0.5 0.01,-0.75l0 -539.76c-50.45,43.08 -131.37,84.82 -189.22,124.23 0,138.76 0,277.52 0,416.28 -5.76,224.66 -68.25,413.39 -392.69,414.42 -7.95,0.03 -16.04,-0.58 -24.69,-0.55 -7.59,0.02 -16.17,-1.11 -23.48,-1.11z"/>
   </g>
   <polygon class="fil5" points="1750.27,345.47 1750.27,92.34 1561.05,217.71 1561.05,463.9 "/>
   <polygon class="fil4" points="1750.27,220.37 1750.27,85.6 1561.05,210.97 1561.05,342.44 "/>
  </g>
 </g>
</svg>
