<svg xmlns="http://www.w3.org/2000/svg" xml:space="preserve" id="app" x="0" y="0" version="1.1" viewBox="0 0 101 101">
  <path d="M44.8 47.2h-26c-1.3 0-2.4-1.1-2.4-2.4v-26c0-1.3 1.1-2.4 2.4-2.4h26c1.3 0 2.4 1.1 2.4 2.4v26c0 1.3-1.1 2.4-2.4 2.4zm-23.6-4.8h21.2V21.2H21.2v21.2zM82.2 47.2h-26c-1.3 0-2.4-1.1-2.4-2.4v-26c0-1.3 1.1-2.4 2.4-2.4h26c1.3 0 2.4 1.1 2.4 2.4v26c0 1.3-1.1 2.4-2.4 2.4zm-23.6-4.8h21.2V21.2H58.6v21.2zM44.8 84.6h-26c-1.3 0-2.4-1.1-2.4-2.4v-26c0-1.3 1.1-2.4 2.4-2.4h26c1.3 0 2.4 1.1 2.4 2.4v26c0 1.3-1.1 2.4-2.4 2.4zm-23.6-4.8h21.2V58.6H21.2v21.2zM82.2 84.6h-26c-1.3 0-2.4-1.1-2.4-2.4v-26c0-1.3 1.1-2.4 2.4-2.4h26c1.3 0 2.4 1.1 2.4 2.4v26c0 1.3-1.1 2.4-2.4 2.4zm-23.6-4.8h21.2V58.6H58.6v21.2z"></path>
</svg>
