<svg xmlns="http://www.w3.org/2000/svg" enable-background="new 0 0 16 16" viewBox="0 0 16 16" id="youtube">
  <g id="line" display="none" fill="#000000" class="color000000 svgShape">
    <path fill="none" stroke="#000000" stroke-linecap="round" stroke-linejoin="round" stroke-miterlimit="10" d="M2,3.4c4-1.1,8-1.1,12.1,0c0.3,0.1,0.6,0.3,0.7,0.6c1.1,2.7,1.1,5.4,0,8.1c-0.1,0.3-0.4,0.5-0.7,0.6
		c-4,1.1-8,1.1-12.1,0c-0.3-0.1-0.6-0.3-0.7-0.6C0.4,9.7,0.3,7.3,0.9,5" class="colorStroke000000 svgStroke"></path>
    <polygon fill="none" stroke="#000000" stroke-linejoin="round" stroke-miterlimit="10" points="6.5 5.5 6.5 10.5 10.5 8" class="colorStroke000000 svgStroke"></polygon>
  </g>
  <g id="line_expanded" display="none" fill="#000000" class="color000000 svgShape">
    <path d="M15.2,3.8c-0.2-0.4-0.5-0.8-1-0.9c-4.1-1.2-8.2-1.2-12.3,0C1.6,3,1.4,3.2,1.5,3.5c0.1,0.3,0.4,0.4,0.6,0.3
			C6,2.7,10,2.7,13.9,3.8c0.1,0,0.3,0.2,0.3,0.3c1,2.6,1,5.2,0,7.7c-0.1,0.1-0.2,0.3-0.3,0.3c-3.9,1.1-7.9,1.1-11.8,0
			c-0.1,0-0.3-0.2-0.3-0.3c-0.9-2.2-1-4.5-0.3-6.7c0.1-0.3-0.1-0.5-0.3-0.6C0.8,4.4,0.5,4.6,0.5,4.9c-0.7,2.5-0.6,4.9,0.4,7.4
			c0.2,0.4,0.5,0.8,1,0.9C3.9,13.7,5.9,14,8,14c2.1,0,4.1-0.3,6.2-0.9c0.4-0.1,0.8-0.5,1-0.9C16.3,9.4,16.3,6.6,15.2,3.8z" fill="#000000" class="color000000 svgShape"></path>
    <path d="M6.5,11c0.1,0,0.2,0,0.3-0.1l4-2.5C10.9,8.3,11,8.2,11,8s-0.1-0.3-0.2-0.4l-4-2.5C6.6,5,6.4,5,6.3,5.1
			C6.1,5.2,6,5.3,6,5.5v5c0,0.2,0.1,0.3,0.3,0.4C6.3,11,6.4,11,6.5,11z M7,6.4L9.6,8L7,9.6V6.4z" fill="#000000" class="color000000 svgShape"></path>
  </g>
  <g id="filled_line" display="none" fill="#000000" class="color000000 svgShape">
    <path fill="#d7e0d9" d="M13,12.8C13,12.9,13,12.9,13,12.8C9.3,13.8,5.7,13.7,2,12.6c-0.3-0.1-0.6-0.3-0.7-0.6C0.2,9.3,0.2,6.6,1.3,4
			C1.4,3.7,1.7,3.4,2,3.4c3.7-1,7.4-1.1,11-0.3c0,0,0,0,0,0C14.3,6.4,14.3,9.6,13,12.8z" class="colord7dce0 svgShape"></path>
    <polygon fill="#595bd4" points="6.5 5.5 6.5 10.5 10.5 8" class="color7d8b8c svgShape"></polygon>
    <path fill="#363643" d="M15.2,3.8c-0.2-0.4-0.5-0.8-1-0.9c-4.1-1.2-8.2-1.2-12.3,0C1.6,3,1.4,3.2,1.5,3.5c0.1,0.3,0.4,0.4,0.6,0.3
				C6,2.7,10,2.7,13.9,3.8c0.1,0,0.3,0.2,0.3,0.3c1,2.6,1,5.2,0,7.7c-0.1,0.1-0.2,0.3-0.3,0.3c-3.9,1.1-7.9,1.1-11.8,0
				c-0.1,0-0.3-0.2-0.3-0.3c-0.9-2.2-1-4.5-0.3-6.7c0.1-0.3-0.1-0.5-0.3-0.6C0.8,4.4,0.5,4.6,0.5,4.9c-0.7,2.5-0.6,4.9,0.4,7.4
				c0.2,0.4,0.5,0.8,1,0.9C3.9,13.7,5.9,14,8,14c2.1,0,4.1-0.3,6.2-0.9c0.4-0.1,0.8-0.5,1-0.9C16.3,9.4,16.3,6.6,15.2,3.8z" class="color3e3643 svgShape"></path>
    <path fill="#363643" d="M6.5,11c0.1,0,0.2,0,0.3-0.1l4-2.5C10.9,8.3,11,8.2,11,8s-0.1-0.3-0.2-0.4l-4-2.5C6.6,5,6.4,5,6.3,5.1
				C6.1,5.2,6,5.3,6,5.5v5c0,0.2,0.1,0.3,0.3,0.4C6.3,11,6.4,11,6.5,11z M7,6.4L9.6,8L7,9.6V6.4z" class="color3e3643 svgShape"></path>
  </g>
  <g id="flat" display="none" fill="#000000" class="color000000 svgShape">
    <path fill="#fe9526" d="M16,8c0-1.4-0.3-2.8-0.8-4.2c-0.2-0.4-0.5-0.8-1-0.9c-4-1.2-8.3-1.2-12.3,0C1.4,3,1,3.3,0.8,3.8
			C0.3,5.2,0,6.6,0,8H16z" class="coloref5350 svgShape"></path>
    <path fill="#d3832f" d="M11,8H6H0c0,1.4,0.3,2.8,0.8,4.2c0.2,0.4,0.5,0.8,1,0.9C3.9,13.7,5.9,14,8,14s4.1-0.3,6.2-0.9
			c0.4-0.1,0.8-0.5,1-0.9C15.7,10.8,16,9.4,16,8H11z" class="colord32f2f svgShape"></path>
    <path fill="#f0f0f0" d="M11,8c0-0.2-0.1-0.3-0.2-0.4l-4-2.5C6.6,5,6.4,5,6.3,5.1C6.1,5.2,6,5.3,6,5.5V8H11z" class="colorf0f0f0 svgShape"></path>
    <path fill="#cfd4d0" d="M6,10.5c0,0.2,0.1,0.3,0.3,0.4C6.3,11,6.4,11,6.5,11c0.1,0,0.2,0,0.3-0.1l4-2.5C10.9,8.3,11,8.2,11,8H6V10.5
			z" class="colorcfd3d4 svgShape"></path>
  </g>
  <g id="duo_tone" fill="#000000" class="color000000 svgShape">
    <path fill="#006cec" d="M14.7,4c-0.1-0.3-0.4-0.5-0.7-0.6C10,2.2,6,2.2,2,3.4L1,5c-0.7,2.3-0.6,4.7,0.4,7c0.1,0.3,0.4,0.5,0.7,0.6
			c4,1.1,8,1.1,12.1,0c0.3-0.1,0.5-0.3,0.7-0.6C15.8,9.3,15.8,6.6,14.7,4z M6.5,10.5v-5l4,2.5L6.5,10.5z" class="color00ecce svgShape"></path>
    <path fill="#53d86a" d="M15.2,3.8c-0.2-0.4-0.5-0.8-1-0.9c-4.1-1.2-8.2-1.2-12.3,0C1.6,3,1.4,3.2,1.5,3.5c0.1,0.3,0.4,0.4,0.6,0.3
				C6,2.7,10,2.7,13.9,3.8c0.1,0,0.3,0.2,0.3,0.3c1,2.6,1,5.2,0,7.7c-0.1,0.1-0.2,0.3-0.3,0.3c-3.9,1.1-7.9,1.1-11.8,0
				c-0.1,0-0.3-0.2-0.3-0.3c-0.9-2.2-1-4.5-0.3-6.7c0.1-0.3-0.1-0.5-0.3-0.6C0.8,4.4,0.5,4.6,0.5,4.9c-0.7,2.5-0.6,4.9,0.4,7.4
				c0.2,0.4,0.5,0.8,1,0.9C3.9,13.7,5.9,14,8,14c2.1,0,4.1-0.3,6.2-0.9c0.4-0.1,0.8-0.5,1-0.9C16.3,9.4,16.3,6.6,15.2,3.8z" class="color01a28e svgShape"></path>
    <path fill="#53d86a" d="M6.5,11c0.1,0,0.2,0,0.3-0.1l4-2.5C10.9,8.3,11,8.2,11,8s-0.1-0.3-0.2-0.4l-4-2.5C6.6,5,6.4,5,6.3,5.1
				C6.1,5.2,6,5.3,6,5.5v5c0,0.2,0.1,0.3,0.3,0.4C6.3,11,6.4,11,6.5,11z M7,6.4L9.6,8L7,9.6V6.4z" class="color01a28e svgShape"></path>
  </g>
  <g id="colored_line" display="none" fill="#000000" class="color000000 svgShape">
    <path fill="#167ffc" d="M15.2,3.8c-0.2-0.4-0.5-0.8-1-0.9c-4.1-1.2-8.2-1.2-12.3,0C1.6,3,1.4,3.2,1.5,3.5c0.1,0.3,0.4,0.4,0.6,0.3
			C6,2.7,10,2.7,13.9,3.8c0.1,0,0.3,0.2,0.3,0.3c1,2.6,1,5.2,0,7.7c-0.1,0.1-0.2,0.3-0.3,0.3c-3.9,1.1-7.9,1.1-11.8,0
			c-0.1,0-0.3-0.2-0.3-0.3c-0.9-2.2-1-4.5-0.3-6.7c0.1-0.3-0.1-0.5-0.3-0.6C0.8,4.4,0.5,4.6,0.5,4.9c-0.7,2.5-0.6,4.9,0.4,7.4
			c0.2,0.4,0.5,0.8,1,0.9C3.9,13.7,5.9,14,8,14c2.1,0,4.1-0.3,6.2-0.9c0.4-0.1,0.8-0.5,1-0.9C16.3,9.4,16.3,6.6,15.2,3.8z" class="color1689fc svgShape"></path>
    <path fill="#3e3e59" d="M6.5,11c0.1,0,0.2,0,0.3-0.1l4-2.5C10.9,8.3,11,8.2,11,8s-0.1-0.3-0.2-0.4l-4-2.5C6.6,5,6.4,5,6.3,5.1
			C6.1,5.2,6,5.3,6,5.5v5c0,0.2,0.1,0.3,0.3,0.4C6.3,11,6.4,11,6.5,11z M7,6.4L9.6,8L7,9.6V6.4z" class="color3e5959 svgShape"></path>
  </g>
</svg>
